<?xml version="1.0" encoding="UTF-8"?>
<!DOCTYPE svg  PUBLIC '-//W3C//DTD SVG 1.1//EN'  'http://www.w3.org/Graphics/SVG/1.1/DTD/svg11.dtd'>
<svg version="1.1" xmlns="http://www.w3.org/2000/svg">
<defs>
<font id="DOCK11-Heavy" horiz-adv-x="272">
<font-face font-family="DOCK11" font-weight="900" ascent="800" bbox="-13 -145 976 816" cap-height="694" descent="-200" panose-1="0 0 0 0 0 0 0 0 0 0" underline-position="-100" underline-thickness="50" unicode-range="U+0020-00DC" units-per-em="1000" x-height="494"/>
<missing-glyph/>
<glyph glyph-name="space" horiz-adv-x="319" unicode=" "/>
<glyph d="M153 -29q59 0 93 49q18 28 18 61q0 58 -49 92q-28 19 -62 19q-58 0 -92 -49q-19 -28 -19 -62q0 -59 50 -92q28 -18 61 -18zM263 694h-220l13 -474h193z" glyph-name="exclam" horiz-adv-x="304" unicode="!"/>
<glyph d="M241 679l-106 38l-87 -156l106 -38zM393 679l-106 38l-86 -156l106 -38z" glyph-name="quotedbl" horiz-adv-x="436" unicode='"'/>
<glyph d="M677 413h-112l-12 -52h124v-155h-172l-38 -125h-167l38 125h-66l-38 -125h-166l37 125h-63v155h111l13 52h-124v154h172l37 126h167l-38 -126h66l38 126h167l-38 -126h64v-154zM386 361l14 52h-66l-14 -52h66z" glyph-name="numbersign" horiz-adv-x="720" unicode="#"/>
<glyph d="M421 423q-2 0 -70 13h-2v77q23 -2 65.5 -9.5t73.5 -13.5l31 -7l47 209l-152 23q-38 5 -63 6h-2v72h-80v-75q-73 -10 -129 -52q-78 -58 -98 -145q-4 -17 -7 -36q-11 -77 34 -139q37 -50 96 -63l89 -16q3 -1 4 -1q2 0 6 -1q3 -1 5 -1v-83q-17 2 -26 3q-36 3 -73 8t-56 9 l-19 4l-44 -206l123 -20q48 -7 81 -8h14v-71h80v75q92 13 145 52q68 51 89 118q7 25 12 56q14 84 -44 151q-49 56 -130 71zM387 208q-5 -24 -38 -29v73q42 -13 38 -44zM233 497q10 21 36 22v-66q-33 11 -37 25q-2 9 1 19z" glyph-name="dollar" horiz-adv-x="628" unicode="$"/>
<glyph d="M495 196q2 -9 13 -13h86v-183h-86q-64 1 -114 32q-61 -40 -133 -40q-96 0 -165 69q-69 70 -69 164q1 100 72 172q-21 44 -21 95q1 94 66 160q69 67 161 67q102 0 170 -76q20 -23 33 -48l-166 -85q-19 22 -39 22q-24 0 -33 -23q-2 -6 -2 -12q0 -23 22 -32q5 -1 9 -2v0h4h3 h289l-15 -192h-85v-75zM318 215v56h-50q-32 0 -45 -27q-4 -10 -4 -19q1 -31 15 -46q19 -13 34 -13q34 0 46 29q4 10 4 20z" glyph-name="ampersand" horiz-adv-x="620" unicode="&amp;"/>
<glyph d="M335 546l-83 -10l34 -77l-50 -30l-52 66l-45 -68l-53 28l31 79l-84 10v59l80 11l-32 74l51 30l50 -65l47 68l52 -28l-32 -78l86 -10v-59z" glyph-name="asterisk" horiz-adv-x="360" unicode="*"/>
<glyph d="M272 184v111h103v103h-103v102h-103v-102h-110v-103h110v-111h103z" glyph-name="plus" horiz-adv-x="453" unicode="+"/>
<glyph d="M226 77q0 -16 -1 -18v-2l-59 -157l-99 37l23 63q-43 28 -44 77q0 51 44 77q22 13 46 13q51 0 77 -43q13 -22 13 -47z" glyph-name="comma" unicode=","/>
<glyph d="M56 295h316v97h-316v-97z" glyph-name="hyphen" horiz-adv-x="437" unicode="-"/>
<glyph d="M138 -1q50 0 77 42q13 22 13 47q0 49 -42 76q-23 14 -48 14q-51 0 -77 -44q-13 -22 -13 -46q0 -52 44 -77q22 -12 46 -12z" glyph-name="period" horiz-adv-x="268" unicode="."/>
<glyph d="M119 -145l331 961h-118l-330 -961h117z" glyph-name="slash" horiz-adv-x="452" unicode="/"/>
<glyph d="M546 635q87 -88 87 -212v-151q-1 -126 -87 -211q-89 -88 -212 -88q-122 1 -210 88t-88 211v151q1 124 88 212q88 87 211 87q124 -1 211 -87zM417 272v151q0 47 -40 71q-20 12 -42 12q-48 0 -71 -42q-11 -19 -11 -41v-151q0 -48 40 -71q20 -11 41 -11q49 0 72 41 q11 20 11 41z" glyph-name="zero" horiz-adv-x="653" unicode="0"/>
<glyph d="M49 694h354v-694h-207v487h-133z" glyph-name="one" horiz-adv-x="444" unicode="1"/>
<glyph d="M385 201h197v-201h-528l1 177l280 225q21 20 30 36q1 5 1 10q0 36 -33 50q-11 4 -22 4q-34 0 -48 -30q-4 -9 -5 -17l-212 45q16 79 75 139q80 79 190 79q128 -1 199 -77q73 -80 72 -196q0 -35 -12 -65q-22 -56 -67 -91z" glyph-name="two" horiz-adv-x="624" unicode="2"/>
<glyph d="M548 693l-125 -244q81 -43 109 -131q12 -37 12 -77q0 -117 -84 -197q-79 -74 -187 -74q-117 0 -196 85q-55 59 -70 138l182 46q26 -52 72 -60q6 -1 12 -1q41 0 57 41q5 11 6 22q5 34 -15 56q-8 7 -16 11l-118 45l108 154l-242 5l-9 181h504z" glyph-name="three" horiz-adv-x="569" unicode="3"/>
<glyph d="M372 460h207v-460h-207v166h-339v195v0v0l153 333h228l-153 -333h111v99z" glyph-name="four" horiz-adv-x="621" unicode="4"/>
<glyph d="M524 230q0 -104 -69 -180q-60 -65 -151 -80q-117 -18 -210 56q-62 50 -87 124l182 73q39 -52 90 -45q38 6 47 39q3 11 1 22q-5 33 -38 41q-18 4 -43 4h-212l22 409h420l-7 -172h-223l-5 -68q128 0 176 -24q18 -9 33 -22q73 -64 74 -177z" glyph-name="five" horiz-adv-x="541" unicode="5"/>
<glyph d="M353 506q106 -22 169 -112q47 -70 47 -153q0 -117 -84 -197q-79 -74 -187 -74q-116 0 -196 84q-74 79 -74 187q0 75 36 147l146 305l228 1zM298 178q39 0 57 35q6 14 6 28q0 38 -34 55q-14 7 -29 7q-30 -1 -47 -22l-1 -1q-13 -18 -14 -39q0 -39 35 -57q13 -6 27 -6z" glyph-name="six" horiz-adv-x="593" unicode="6"/>
<glyph d="M-2 693l532 1l-236 -694h-220l165 488h-227z" glyph-name="seven" horiz-adv-x="526" unicode="7"/>
<glyph d="M469 56q81 77 81 196q0 111 -73 189l-2 2q10 37 10 69q-1 89 -64 153q-61 63 -150 63q-87 -1 -151 -63q-64 -66 -64 -153q0 -38 13 -69q-76 -81 -78 -191q1 -116 82 -196q81 -82 198 -82q119 1 198 82zM271 303q21 -1 36 -15q13 -12 13 -27q2 -4 2 -8q0 -32 -28 -47 q-11 -6 -23 -6q-27 0 -43 27q-8 13 -8 25q0 32 31 47q11 4 20 4zM271 548q16 -1 26 -9q10 -14 10 -26q0 -26 -23 -36q-7 -2 -13 -2q-22 0 -33 23q-3 7 -3 14q0 27 26 34q5 2 10 2z" glyph-name="eight" horiz-adv-x="542" unicode="8"/>
<glyph d="M566 449q0 -48 -18 -97v0q-5 -14 -14 -30l-147 -322h-229l84 183q-108 22 -170 113q-48 70 -48 153q0 116 85 196q79 74 186 74q116 0 196 -84q75 -79 75 -186zM295 386q39 0 57 35q6 14 6 28q0 38 -34 55q-14 7 -29 7q-39 0 -57 -35q-6 -13 -6 -27q0 -39 35 -57 q14 -6 28 -6z" glyph-name="nine" horiz-adv-x="585" unicode="9"/>
<glyph d="M143 410q52 0 78 44q12 21 12 45q0 50 -43 77q-22 13 -47 13q-49 0 -76 -42q-14 -23 -14 -48q0 -50 44 -76q22 -13 46 -13zM151 158q50 0 77 42q13 22 13 47q0 49 -42 76q-23 14 -48 14q-51 0 -77 -44q-13 -22 -13 -46q0 -52 44 -77q22 -12 46 -12z" glyph-name="colon" horiz-adv-x="291" unicode=":"/>
<glyph d="M226 77q0 -16 -1 -18v-2l-59 -157l-99 37l23 63q-43 28 -44 77q0 51 44 77q22 13 46 13q51 0 77 -43q13 -22 13 -47zM136 251q52 0 78 44q12 21 12 45q0 50 -43 77q-22 13 -47 13q-49 0 -76 -42q-14 -23 -14 -48q0 -50 44 -76q22 -13 46 -13z" glyph-name="semicolon" unicode=";"/>
<glyph d="M318 32l-268 268l268 268l110 -110l-157 -158l157 -158z" glyph-name="less" horiz-adv-x="486" unicode="&lt;"/>
<glyph d="M56 193h316v104h-316v-104zM56 344h316v104h-316v-104z" glyph-name="equal" horiz-adv-x="430" unicode="="/>
<glyph d="M409 302l2 -3l-268 -268l-111 111l158 157l-158 158l111 110z" glyph-name="greater" horiz-adv-x="459" unicode="&gt;"/>
<glyph d="M261 -37q58 0 91 49q19 28 19 61q0 58 -48 92q-29 19 -62 19q-58 0 -92 -49q-19 -28 -19 -62q0 -59 50 -92q28 -18 61 -18zM328 702q90 -35 129 -124q37 -86 4 -174q-17 -46 -55 -73q-20 -14 -48 -28l-7 -83h-185l-10 195l62 -1q40 1 58 16q16 14 20 35q1 2 1 3 q10 40 -20 62q-6 5 -12 7q-35 13 -59 -15q-7 -8 -10 -16v-1l-1 -1l-165 65l1 1q34 89 122 128q87 38 175 4z" glyph-name="question" horiz-adv-x="500" unicode="?"/>
<glyph d="M52 158h514v109h-514v-109zM572 508v92h-247v-92h78v-205h92v205h77zM272 304l-13 38h-95l-13 -39l-98 1l102 294v2h1h1h108h1l103 -296h-97zM190 418h42l-21 60z" glyph-name="at" horiz-adv-x="616" unicode="@"/>
<glyph d="M512 0l-32 91h-221l-32 -92l-228 1l241 694h258l241 -694h-227zM320 268h98l-49 141z" glyph-name="A" horiz-adv-x="739" unicode="A"/>
<glyph d="M593 369q63 -64 63 -150q-1 -93 -63 -154q-64 -65 -182 -65h-370v693l315 1q99 0 154 -44q10 -9 21 -19q52 -54 52 -147q-1 -67 -31 -94q23 -3 41 -21zM356 534h-106v-101h98q28 1 43 15q15 16 15 36q0 33 -30 46q-10 4 -20 4zM447 181q16 17 16 38q0 33 -31 47 q-10 5 -21 5h-161v-106h148q33 1 49 16z" glyph-name="B" horiz-adv-x="664" unicode="B"/>
<glyph d="M637 52l22 22l-135 161l-3 -3q-39 -38 -123 -38q-75 1 -117 43q-40 40 -40 108q1 66 46 110q45 46 111 46q65 -1 111 -46l2 -2l121 182q-102 77 -219 83h-15q-154 -1 -263 -109q-109 -110 -109 -264q1 -154 109 -263q110 -109 263 -109q104 0 160 27q37 18 79 52z" glyph-name="C" horiz-adv-x="656" unicode="C"/>
<glyph d="M569 101q102 104 102 247q-1 143 -102 245q-104 102 -245 102h-284v-695h284q143 1 245 101zM456 346q-1 -55 -39 -92q-19 -19 -45 -28.5t-44 -10.5t-51 0h-22v264h69q60 -1 95 -41q37 -41 37 -92z" glyph-name="D" horiz-adv-x="695" unicode="D"/>
<glyph d="M542 504h-285v-65h280v-174h-280v-69h286v-196h-502v694h501v-190z" glyph-name="E" horiz-adv-x="578" unicode="E"/>
<glyph d="M544 502h-287v-78h284v-174h-284v-250h-215v694h502v-192z" glyph-name="F" horiz-adv-x="581" unicode="F"/>
<glyph d="M756 396v-42v-9q-1 -160 -103 -263q-111 -109 -263 -109q-153 1 -263 109q-109 110 -109 263q1 156 109 263q111 110 263 110q153 -1 263 -110l-160 -146q-40 39 -103 39q-65 -1 -111 -46q-45 -46 -45 -110q0 -65 45 -111q47 -45 111 -45q65 1 110 45q13 14 21 25h-120 v137h355z" glyph-name="G" horiz-adv-x="773" unicode="G"/>
<glyph d="M667 0v694h-216v-238h-193v238h-217v-694h217v240h193v-240h216z" glyph-name="H" horiz-adv-x="707" unicode="H"/>
<glyph d="M256 0v694h-216v-694h216z" glyph-name="I" horiz-adv-x="297" unicode="I"/>
<glyph d="M375 297v396h-216v-396q-1 -61 -41 -102q-41 -42 -100 -42v-215q148 1 253 105q104 106 104 254z" glyph-name="J" horiz-adv-x="410" unicode="J"/>
<glyph d="M548 -129l171 129l-267 353l213 214l-152 153l-253 -254v227h-216v-693h216v240z" glyph-name="K" horiz-adv-x="703" unicode="K"/>
<glyph d="M477 0v216h-221v478h-215v-694h436z" glyph-name="L" horiz-adv-x="496" unicode="L"/>
<glyph d="M552 694h215v-694h-215v336l-147 -195l-150 198v-339h-215v694h215v-1h1l148 -194l148 193v2z" glyph-name="M" horiz-adv-x="792" unicode="M"/>
<glyph d="M693 694v-694h-213l-2 -1l-223 321v-320h-215v693l215 1l222 -316v316h216z" glyph-name="N" horiz-adv-x="735" unicode="N"/>
<glyph d="M649 82q110 111 110 263q-1 155 -110 263q-111 110 -263 110q-153 -1 -263 -110q-109 -110 -109 -263q1 -153 109 -263q111 -109 263 -109q153 1 263 109zM496 455q47 -45 47 -110q-1 -66 -47 -111q-47 -45 -110 -45q-65 1 -111 45q-45 46 -45 111q1 65 45 110 q47 46 111 46q64 -1 110 -46z" glyph-name="O" horiz-adv-x="771" unicode="O"/>
<glyph d="M597 187q87 88 87 211q-1 124 -87 211q-86 85 -212 85h-343v-694h217v100h126q125 1 212 87zM385 480q49 0 72 -42q10 -19 10 -40q0 -47 -40 -71q-20 -12 -42 -12h-126v165h126z" glyph-name="P" horiz-adv-x="704" unicode="P"/>
<glyph d="M758 347q-1 -153 -110 -263q-78 -77 -174 -99v-85h-177v85q-99 24 -175 99q-109 111 -109 263q1 154 109 263q111 110 264 110q154 -1 262 -110q110 -109 110 -263zM495 236q47 46 47 111q-1 66 -47 110q-45 46 -109 46q-67 -1 -111 -46q-46 -45 -46 -110q1 -65 46 -111 q12 -11 22 -18v86h177v-86z" glyph-name="Q" horiz-adv-x="762" unicode="Q"/>
<glyph d="M775 1l-173 -130l-174 231q-43 -3 -44 -3h-127v-99h-217v694h344q129 -1 212 -83q88 -89 88 -212q-1 -108 -67 -188zM257 316h127q47 0 71 41q11 20 11 42q0 47 -41 71q-19 11 -41 11h-127v-165z" glyph-name="R" horiz-adv-x="755" unicode="R"/>
<glyph d="M417 425q-2 0 -69 12q-69 10 -80 15q-24 9 -22 34q0 5 1 8q6 22 34 23q10 0 61 -3l172 -19l45 200l-156 23q-35 4 -58 5q-130 5 -199 -38q-10 -6 -19 -13q-70 -54 -91 -151q-3 -18 -6 -38q-10 -76 35 -137q38 -50 98 -63l90 -16h1h1l65 -9q58 -7 53 -45q-1 -2 -1 -3 q-7 -31 -58 -29q-7 0 -20 1q-11 1 -16 1q-35 2 -81.5 7.5t-74.5 9.5l-29 4l-42 -207l123 -19q48 -6 82 -7q121 -2 171 12q41 11 69 32q71 57 92 157q4 16 6 32q12 89 -49 155q-50 52 -128 66z" glyph-name="S" horiz-adv-x="616" unicode="S"/>
<glyph d="M590 481v213h-577v-213h181v-481h215v481h181z" glyph-name="T" horiz-adv-x="604" unicode="T"/>
<glyph d="M421 693h216v-422q-1 -126 -87 -211q-89 -88 -212 -88q-122 1 -211 88q-87 86 -87 211v422h216v-422q0 -48 41 -71q20 -11 41 -11q49 0 72 41q11 20 11 41v422z" glyph-name="U" horiz-adv-x="678" unicode="U"/>
<glyph d="M500 0h-244l-260 693h230l152 -404l153 404h230z" glyph-name="V" horiz-adv-x="758" unicode="V"/>
<glyph d="M364 0h-220l-143 693h220l85 -411l182 267l182 -267l86 411h220l-144 -693h-220l1 2l-1 -1l-123 189l-124 -189l-1 1v-2z" glyph-name="W" horiz-adv-x="977" unicode="W"/>
<glyph d="M-13 0l249 359l-234 335h262l103 -146l103 146h263l-234 -335l248 -359h-262l-118 170l-117 -170h-263z" glyph-name="X" horiz-adv-x="730" unicode="X"/>
<glyph d="M712 694h-249l-107 -182l-107 182h-249l248 -429v-265h216v265z" glyph-name="Y" horiz-adv-x="712" unicode="Y"/>
<glyph d="M374 217l277 477h-625v-215h249l-276 -479h624v217h-249z" glyph-name="Z" horiz-adv-x="651" unicode="Z"/>
<glyph d="M202 698h-66v-707h66v-105h-181v917h181v-105z" glyph-name="bracketleft" horiz-adv-x="236" unicode="["/>
<glyph d="M34 -9h66v707h-66v105h181v-917h-181v105z" glyph-name="bracketright" horiz-adv-x="235" unicode="]"/>
<glyph d="M19 0h456v93h-456v-93z" glyph-name="underscore" horiz-adv-x="500" unicode="-"/>
<glyph d="M586 612h-121v-33h121v-75h-121v-105h-91v294h212v-81zM304 435q46 47 46 111q-1 65 -46 111q-47 46 -111 46q-65 -1 -111 -46q-46 -47 -46 -111q1 -65 46 -111q47 -46 111 -46q65 1 111 46zM239 592q20 -18 20 -46q-1 -29 -20 -47q-18 -19 -46 -19q-28 1 -47 19 q-19 20 -19 47q1 29 19 46q21 20 47 20q28 -1 46 -20zM41 253h544v110h-544v-110z" glyph-name="a" horiz-adv-x="628" unicode="a"/>
<glyph d="M562 435q46 47 46 111q-1 65 -46 111q-47 46 -111 46q-65 -1 -111 -46q-46 -47 -46 -111q1 -65 46 -111q47 -46 111 -46q65 1 111 46zM497 592q20 -18 20 -46q-1 -29 -20 -47q-20 -19 -46 -19q-28 1 -47 19q-19 20 -19 47q1 29 19 46q21 20 47 20q26 -1 46 -20zM284 602 v91h-244v-91h77v-203h91v203h76zM40 254h570v109h-570v-109z" glyph-name="b" horiz-adv-x="651" unicode="b"/>
<glyph d="M40 252h523v109h-523v-109zM273 556q27 -28 27 -65q-1 -38 -27 -65q-28 -27 -77 -27h-138h-18v294h133q48 -1 74 -26q25 -26 25 -62q0 -22 -9 -40q7 -5 10 -9zM173 626h-42v-43h39q10 0 18 6q6 8 6 16q0 17 -16 20q-3 1 -5 1zM212 475q6 8 6 16q0 18 -17 21q-3 1 -5 1 h-65v-44h60q15 0 21 6zM569 693h-106l-45 -78l-45 78h-105l105 -182v-112h91v112z" glyph-name="c" horiz-adv-x="586" unicode="c"/>
<glyph d="M40 253h515v110h-515v-110zM317 693v-294h-90l-1 -1l-94 136v-135h-91v294l91 1l94 -136v135h91zM650 411l-73 -55l-65 86q-7 -1 -18 -1h-54v-42h-91v294h145q53 -1 89 -36q37 -38 37 -90q-1 -47 -28 -79zM440 532h54q24 0 33 23q2 6 2 12q0 24 -23 33q-6 2 -12 2h-54 v-70z" glyph-name="d" horiz-adv-x="652" unicode="d"/>
<glyph d="M40 255h853v110h-853v-110zM857 443q43 45 43 104q-1 60 -43 104q-44 43 -104 43h-120v-294h120q60 1 104 43zM809 547q-1 -22 -16 -39q-19 -17 -60 -17h-9v112h29q26 -1 41 -18t15 -38zM204 694h91v-178q-1 -54 -37 -89q-36 -37 -89 -37q-52 1 -89 37q-37 38 -37 89v178 h91v-178q0 -24 23 -33q6 -2 12 -2q24 0 33 23q2 6 2 12v178zM603 694v-294h-90l-1 -1l-94 135v-135h-91v295h91l94 -135v135h91z" glyph-name="e" horiz-adv-x="934" unicode="e"/>
<glyph d="M255 397l-14 38h-94l-14 -39l-97 1l104 296h108h1l103 -296h-97zM173 511h42l-21 60zM38 254h878v109h-878v-109zM884 442q44 45 44 104q-1 59 -44 103t-103 44h-120v-294h120q62 1 103 43zM837 545q-1 -22 -16 -39q-20 -18 -60 -16h-9v111h29q26 -1 40 -17 q16 -18 16 -39zM631 692v-294h-91l-94 135v-136h-91v295l91 1l94 -136v135h91z" glyph-name="f" horiz-adv-x="976" unicode="f"/>
<glyph d="M299 435q46 47 46 111q-1 65 -46 111q-47 46 -111 46q-65 -1 -111 -46q-46 -47 -46 -111q1 -65 46 -111q47 -46 111 -46q65 1 111 46zM234 592q20 -18 20 -46q-1 -29 -20 -47q-20 -19 -46 -19q-28 1 -47 19q-19 20 -19 47q1 29 19 46q21 20 47 20q26 -1 46 -20zM38 254 h300v109h-300v-109z" glyph-name="g" horiz-adv-x="377" unicode="g"/>
<glyph d="M435 212l-113 -113l-84 85l-85 -85l-113 113l85 85l-85 85l113 112l85 -84l84 84l113 -112l-85 -85z" glyph-name="x" horiz-adv-x="475" unicode="x"/>
<glyph d="M145 -110v925h-101v-925h101z" glyph-name="bar" horiz-adv-x="190" unicode="|"/>
<glyph d="M285 466q44 45 44 105q-1 62 -44 104q-43 44 -105 44q-63 -1 -105 -44q-43 -42 -43 -104q1 -62 43 -105q44 -43 105 -43q62 1 105 43zM224 615q19 -18 19 -44q-1 -27 -19 -44q-20 -19 -44 -19q-25 1 -44 19q-18 19 -18 44q1 26 18 44q19 18 44 18q26 -1 44 -18z" glyph-name="degree" horiz-adv-x="362" unicode="°"/>
<glyph d="M299 222v237h-237v-237h237z" glyph-name="periodcentered" horiz-adv-x="362" unicode="·"/>
<glyph d="M512 0l-32 91h-221l-32 -92l-228 1l241 694h258l241 -694h-227zM320 268h98l-49 141zM128 631q52 0 78 44q12 21 12 45q0 50 -43 77q-22 13 -47 13q-49 0 -76 -42q-14 -23 -14 -48q0 -50 44 -76q22 -13 46 -13zM611 629q52 0 78 44q12 21 12 45q0 50 -43 77 q-22 13 -47 13q-49 0 -76 -42q-14 -23 -14 -48q0 -50 44 -76q22 -13 46 -13z" glyph-name="Adieresis" horiz-adv-x="739" unicode="Ä"/>
<glyph d="M96 631q52 0 78 44q12 21 12 45q0 50 -43 77q-22 13 -47 13q-49 0 -76 -42q-14 -23 -14 -48q0 -50 44 -76q22 -13 46 -13zM651 82q110 111 110 263q-1 155 -110 263q-111 110 -263 110q-153 -1 -263 -110q-109 -110 -109 -263q1 -153 109 -263q111 -109 263 -109 q153 1 263 109zM498 455q47 -45 47 -110q-1 -66 -47 -111q-47 -45 -110 -45q-65 1 -111 45q-45 46 -45 111q1 65 45 110q47 46 111 46q64 -1 110 -46zM685 629q52 0 78 44q12 21 12 45q0 50 -43 77q-22 13 -47 13q-49 0 -76 -42q-14 -23 -14 -48q0 -50 44 -76q22 -13 46 -13 z" glyph-name="Odieresis" horiz-adv-x="783" unicode="Ö"/>
<glyph d="M421 606h216v-335q-1 -126 -87 -211q-89 -88 -212 -88q-122 1 -211 88q-87 86 -87 211v335h216v-335q0 -48 41 -71q20 -11 41 -11q49 0 72 41q11 20 11 41v335zM146 631q52 0 78 44q12 21 12 45q0 50 -43 77q-22 13 -47 13q-49 0 -76 -42q-14 -23 -14 -48q0 -50 44 -76 q22 -13 46 -13zM526 629q52 0 78 44q12 21 12 45q0 50 -43 77q-22 13 -47 13q-49 0 -76 -42q-14 -23 -14 -48q0 -50 44 -76q22 -13 46 -13z" glyph-name="Udieresis" horiz-adv-x="686" unicode="Ü"/>
</font>
</defs>
</svg>
