<?xml version="1.0" encoding="UTF-8"?>
<!DOCTYPE svg  PUBLIC '-//W3C//DTD SVG 1.1//EN'  'http://www.w3.org/Graphics/SVG/1.1/DTD/svg11.dtd'>
<svg version="1.1" xmlns="http://www.w3.org/2000/svg">
<defs>
<font id="Ballz" horiz-adv-x="1092">
<font-face font-family="Ballz" font-weight="400" ascent="1638" bbox="-459.138 -897.5 1789.44 1578" cap-height="1439" descent="-410" panose-1="2 0 5 0 0 0 0 0 0 0" underline-position="-292" underline-thickness="150" unicode-range="U+0020-00FE" units-per-em="2048" x-height="910"/>
<missing-glyph/>
<glyph glyph-name="space" horiz-adv-x="380" unicode=" "/>
<glyph glyph-name="space" horiz-adv-x="380" unicode=" "/>
<glyph d="M412 1288q15 -1 19 -6q10 -22 -28 -83q-34 -55 -66 -144q-31 -93 -47 -226l-1 -4q-5 -42 -10 -80q-14 -155 -53 -283q-53 -146 -95 -137q-30 17 -29 157v7q-3 60 -2.5 160t12.5 200q0 1 1 2v2q19 151 84 267q60 100 121 136t94 32zM128 179q47 -2 60 -39q4 -14 4 -31 t-1 -29v-4v-2q-1 -12 -3.5 -26t-11.5 -29q-27 -38 -69 -48.5t-72 16.5q-25 28 -29 65q-6 36 28 79q48 50 94 48z" glyph-name="exclam" horiz-adv-x="481" unicode="!"/>
<glyph d="M571 1203q11 1 19 -4q14 -12 12 -43.5t-12 -76.5q0 -3 -1 -6q-10 -55 -18.5 -103t-19.5 -127v-4q-18 -146 -41 -249.5t-67 -105.5q-32 5 -58.5 109t-11.5 268q1 2 1 3v2q26 173 103 268q56 66 94 69zM213 1178q12 1 19 -5q15 -11 13 -42.5t-12 -77.5q0 -3 -1 -6 q-11 -54 -19 -102t-19 -127v-4q-18 -147 -41.5 -250t-66.5 -105q-32 5 -59 109t-11 268q0 1 1 3v2q26 173 103 267q56 67 93 70z" glyph-name="quotedbl" horiz-adv-x="644" unicode='"'/>
<glyph d="M943 1107q3 0 5 -1q23 -17 3 -148q-3 -26 -6 -56q-2 -24 -4 -51q-1 -6 -1 -12q112 -6 168.5 -37.5t51.5 -52.5q-11 -21 -96 -29q-56 -7 -135 -25q-7 -100 -20 -217q76 -14 117 -44.5t54 -59t7 -35.5q-15 -13 -67 -5q-52 9 -131 3q-25 -150 -78 -274 q-72 -154 -147.5 -211.5t-94.5 -40.5q-13 18 25 98q36 76 73 204q22 86 36 180h-2q-43 -14 -104 -31q-8 -3 -17 -5q-126 -38 -244 -47q-21 -59 -48 -115q-76 -150 -116 -139q-30 19 -5 176q5 37 14 88q-64 16 -102 43t-52 51.5t-9 33.5q15 16 80 9q45 -4 110 -2 q18 83 43 166q-95 7 -151 37t-78 61t-17 40q13 16 78 8q74 -11 193 5q18 3 35 7q66 144 156 230q63 58 108.5 74t56.5 1q11 -22 -33 -89q-16 -27 -34 -62q-23 -44 -42 -86l6 2q5 1 10 3l1 0.5t2.5 1t3.5 1t3 1l1 0.5q124 45 239 69q14 54 34 107q75 174 120 175zM751 639 q-14 -5 -28 -11q-54 -20 -114 -41l-12 -4q-77 -27 -151 -44q-7 -22 -15 -44l-4 -10v-1t-0.5 -2.5l-1 -3t-1 -2t-0.5 -1.5q-13 -40 -24 -75q-1 -5 -3 -10q27 8 56 16q35 11 78 23q9 2 17 5q94 27 180 40q11 89 23 165z" glyph-name="numbersign" horiz-adv-x="1205" unicode="#"/>
<glyph d="M625 1337q3 0 4 -1q11 -14 -21 -84q-30 -66 -60 -175q78 12 145 -5q61 -17 93 -54q20 -24 26.5 -43.5t6 -33.5t-4 -21.5t-5.5 -7.5q-7 -1 -19 15q-15 21 -48 41q-24 13 -64 14q-65 2 -152 -38q-1 -4 -1 -7q-1 -5 -1 -11q-3 -46 -3 -93q102 -28 211 -74q105 -29 205 -156 q2 -3 3 -5q34 -64 15 -140q-39 -91 -95 -125q-125 -96 -247 -168q5 -40 8 -82q11 -204 -25 -315t-66 -106q-21 10 -26 124q-5 105 -34 278l-2 10l-2 8q-86 -44 -172 -74q-66 -25 -139 -30q-60 -11 -123 41q-27 41 -29.5 75.5t7.5 57.5q19 63 43 100t43.5 51.5t22.5 12.5 q9 -6 -2 -51q-12 -48 -16 -128l2 -18q0 -12 2 -19t5 -4q-1 -1 3 0q7 4 29 4q44 9 100 37q92 44 189 107q-27 115 -51 248l-2 12q-19 107 -23 208q-3 1 -5 2q-4 1 -7 2q-24 6 -67 28q-62 36 -57 120q24 68 55 87q56 49 114 75q56 170 133 240.5t104 70.5zM537 649 q8 -55 17 -116l0.5 -1t0.5 -2q0 -2 0.5 -3.5t0.5 -3v-1.5q10 -58 19 -109q6 -33 11 -65q83 58 164 123l15 15q18 16 19 24l-0.5 1t-0.5 2v0q-18 34 -86 65q-19 9 -39 21q-59 27 -121 50z" glyph-name="dollar" horiz-adv-x="1014" unicode="$"/>
<glyph d="M233 863q77 2 115 43q93 103 93 232v9q-78 33 -85 15q-46 -121 -95 -157q-5 -2 -9.5 -4.5t-6.5 -2.5v1l-5 5q-10 7 -10 26v14q3 52 53 94q23 20 66 48q-143 63 -224 -48q-30 -47 -30 -110q0 -55 38 -111l9 -11q36 -36 91 -43zM13 115q30 0 134.5 49t262.5 214 q132 148 264 365q116 197 230 335q148 159 243 215q54 35 54 48q0 7 -22 7q-14 0 -51.5 -5.5t-123.5 -47.5t-186 -137q-139 -141 -260 -341q-14 -21 -44 -69q-101 -163 -198 -291q-150 -182 -249 -263q-67 -57 -67 -73v-2q3 -4 13 -4zM872 149q76 1 114 43q59 65 77 131 q16 59 16 110q-5 93 -84 15q-4 -8 -7 -17q-39 -107 -89 -140l-15 -7v1q-2 0 -4 4l-2 1q-9 7 -9 26q0 64 52 108q32 26 61 44l5 4q-55 77 -121 44q-55 -27 -102 -92q-30 -45 -31 -104q0 -60 39 -117q30 -45 100 -54z" glyph-name="percent" horiz-adv-x="1241" unicode="%"/>
<glyph d="M465 1276q123 -98 169 -256q8 -91 -21 -176q-13 -36 -30 -69q-57 -108 -135 -191q49 -147 143 -242q20 -20 39 -38q175 31 253 130q70 91 83 170.5t8 118.5q2 -4 4 -9q19 -37 23 -117t-68 -199q-75 -108 -225 -158q125 -89 233 -122.5t169 -40.5q-4 -1 -8 -1 q-69 -10 -196 8.5t-290 132.5q-176 -39 -394 -58q-51 -5 -110 0q-30 -3 -78 32q-34 47 -18 86q17 42 38 63q54 64 113 117l20 18q77 72 150 150q-10 41 -16 84q-26 188 25 389q14 61 41 123q6 16 21 38q13 4 32 11h2q11 4 23 6zM974 723q-4 11 -4 17t6 6q-3 -1 -2 -23z M1110 77q51 6 50 -11q-1 4 -37 9q-6 1 -13 2zM480 1163q-18 -44 -31 -92q-49 -181 -30 -349q38 49 65 103q13 27 23 55q24 66 17 128q4 84 -44 155zM377 509q-59 -59 -117 -112l-30 -28q-54 -47 -96 -95q-5 -6 -8 -10q-2 -2 -3 -4h1q1 -1 2 -1q42 -5 91 -3q162 9 313 32 q-93 89 -153 221z" glyph-name="ampersand" horiz-adv-x="1201" unicode="&amp;"/>
<glyph d="M150 1411q-11 10 -32.5 2.5t-48.5 -37.5q-55 -63 -64 -176v-1q-1 0 -1 -1q-4 -105 12 -165q11 -61 37 -71q30 -6 59 61q25 71 30 164v1v1q6 53 9 94q2 28 4 51q1 4 1 9q3 23 3 41t-9 27z" glyph-name="quotesingle" horiz-adv-x="199" unicode="'"/>
<glyph d="M398 1395q-19 18 -102 -54.5t-169 -247.5q-89 -180 -111 -432l-2 -28q-14 -250 95 -430q66 -100 148 -143v0q66 -33 113.5 -39t73.5 1.5t26 12.5q0 9 -37 24q-51 19 -126 77v0q-55 44 -97 124q-71 146 -59 367q1 12 2 25q20 224 83 396q72 183 129 269q40 66 33 78z" glyph-name="parenleft" horiz-adv-x="510" unicode="("/>
<glyph d="M7 1384q18 18 104.5 -50.5t180.5 -238.5q97 -176 132 -427q2 -14 3 -27q26 -250 -74 -435q-61 -102 -141 -149v0q-64 -37 -111.5 -45t-73.5 -2t-27 11q0 10 36 26q50 21 122 83v0q53 46 91 129q64 149 41 369q-1 12 -3 24q-30 224 -102 393q-80 179 -141 262 q-44 64 -37 77z" glyph-name="parenright" horiz-adv-x="493" unicode=")"/>
<glyph d="M244 1343q31 -9 43 -129q73 85 106 73q23 -15 6 -81.5t-66 -157.5q65 -9 104.5 -27t39.5 -40q-3 -24 -52.5 -40.5t-127.5 -21.5q34 -68 47 -117t-6 -64q-20 -12 -67 22q-18 -81 -45 -81q-34 0 -58 150q-40 -35 -60 -25q-28 22 8 121q-109 17 -116 56q4 35 95 58 q-13 61 -7 100t27 44q21 2 52 -41q12 93 33 147.5t44 53.5z" glyph-name="asterisk" horiz-adv-x="517" unicode="*"/>
<glyph d="M305 1053q4 0 8 -2q12 -7 12.5 -35t-3.5 -70q-4 -40 -6 -72t-4 -72h4q5 -1 10 -1h1q61 -7 111 -15q31 -4 57 -8q34 -3 63 -5q36 -2 60 -5t29 -9q10 -18 -26 -51.5t-124 -46.5q-86 -9 -183 3h-1h-3h-3q-5 -120 -19 -200.5t-45 -80.5q-20 0 -45.5 81.5t-27.5 211.5h-6h-9 q-53 -2 -90 -11q-43 -11 -58 0q-7 7 0 31t37.5 52t93.5 44q20 5 40 8q19 116 57.5 184t69.5 69z" glyph-name="plus" horiz-adv-x="697" unicode="+"/>
<glyph d="M4 411q-4 -12 3.5 -27t19.5 -33q4 -6 8 -13q34 -47 47 -115v-5q7 -73 -4 -129q-1 -4 -1 -8q-5 -25 -5 -43t9 -27q10 -10 32 -3t49 35q62 62 57 191q0 5 -1 10q-13 68 -48.5 110.5t-74.5 59.5q-38 17 -62 13.5t-29 -16.5z" glyph-name="comma" horiz-adv-x="264" unicode=","/>
<glyph d="M0 639q3 -49 112.5 -84.5t276.5 -38.5q166 0 278 33t112 79t-112 77.5t-278 34.5q-164 0 -274 -27.5t-115 -73.5z" glyph-name="hyphen" horiz-adv-x="819" unicode="-"/>
<glyph d="M0 639q3 -49 112.5 -84.5t276.5 -38.5q166 0 278 33t112 79t-112 77.5t-278 34.5q-164 0 -274 -27.5t-115 -73.5z" glyph-name="hyphen" horiz-adv-x="819" unicode="­"/>
<glyph d="M138 225q-26 12 -57.5 -3t-54.5 -50q-24 -36 -25 -71.5t22 -53.5q25 -16 58 -2.5t60 51.5q25 41 24 77t-27 52z" glyph-name="period" horiz-adv-x="206" unicode="."/>
<glyph d="M716 1173q-10 10 -58.5 -21t-115.5 -108q-137 -163 -250 -450v-0.5v-0.5h-0.5h-0.5q-51 -123 -80 -197q-27 -68 -51.5 -125t-62.5 -133q-26 -51 -47 -88q-50 -87 -40 -102q12 -9 58 24.5t110 112.5q129 169 241 455v0v0.5v0.5v0q29 69 52 123q40 98 73 171.5t77 153.5 q31 53 54 92q51 77 41 92z" glyph-name="slash" horiz-adv-x="766" unicode="/"/>
<glyph d="M706 1047q0 7 -55 21t-161 12q-47 0 -108 -16t-119 -64v0q-188 -176 -238 -504q-25 -102 33 -224q63 -88 164 -101q18 -2 36 -2q90 1 163 31q113 43 199 111q221 176 273 401q28 144 -8 252q-23 69 -52 113.5t-56 69t-45 34.5t-19 9q-4 -6 15 -38q42 -59 75 -208 q17 -91 -15 -204q-55 -178 -248 -322q-76 -57 -165 -90q-60 -21 -114 -22q-11 0 -21 2q-22 4 -40 13.5t-26 23.5q-17 22 -19 57.5t2 76.5q36 293 178 449v0q30 34 76.5 51.5t87.5 26.5q80 15 132 22q73 9 75 19z" glyph-name="zero" horiz-adv-x="961" unicode="0"/>
<glyph d="M3 856q12 -8 72 29t107 47t37 -23q-20 -66 -46 -134q-9 -25 -19 -52t-20 -56q-82 -218 -102 -407v0q-13 -112 24 -198q22 -45 56 -67v0q27 -16 46 -18t29.5 2t10.5 7q1 8 -14 20q-16 12 -32 35v0q-13 18 -19 49q-10 57 12 154v0q32 142 95 308q11 32 24 69q10 29 20 57 q36 100 59 199q10 37 13 80q5 28 -11 76q-28 49 -79 51q-57 -6 -79 -26v0q-74 -47 -115 -92t-56.5 -75.5t-12.5 -34.5z" glyph-name="one" horiz-adv-x="401" unicode="1"/>
<glyph d="M506 1094q77 -5 127 -59q60 -58 92 -144q76 -205 -47 -434q-114 -179 -311 -288v0h1q264 -10 434 67q123 60 175.5 143t68.5 136l11 -4q7 -36 2.5 -94t-49.5 -128t-161 -141q-199 -109 -481 -107q-54 -2 -112 -5q-54 -3 -111 -5h-3q-39 -4 -94 2q-11 14 -30 32 q-9 10 -18 21q26 74 21 84q15 8 23 10q83 29 166 66q241 102 358 279q102 173 55 332q-20 68 -58 112q-34 39 -62 43q-11 5 -24 -4.5t-23 -22.5q-27 -41 -36.5 -78.5t-12.5 -62.5q-2 -25 -3.5 -25.5t-6.5 7.5q-11 16 -20.5 63.5t19.5 126.5q11 28 38 51t72 27z" glyph-name="two" horiz-adv-x="1104" unicode="2"/>
<glyph d="M499 1120q38 0 80 -8q19 1 43 -13.5t48 -51.5q10 -76 -22 -101q-32 -42 -67 -69q-62 -50 -125 -93q-23 -17 -48 -34q-21 -16 -40 -31q28 -6 59 -13q63 -11 132 -31q3 -1 5 -1q106 -22 193 -120q41 -76 34.5 -148t-39.5 -125q-73 -150 -218 -216q-140 -47 -254 0 q-134 52 -193 116t-73 123.5t-12 98.5q-1 17 -2 27q5 -8 13 -21q26 -52 95.5 -128t204.5 -117q87 -26 174 11q91 45 148 164q16 42 23 80t-12 55q-30 41 -113 64q-5 2 -9 4h-0.5h-1t-1 0.5t-1 0.5h-0.5q-52 15 -110 27q-38 8 -78 18q-34 5 -81 29q-17 7 -40 36 q-19 34 -11 70q31 67 56 76q41 33 78 57q34 23 66 43q57 37 106 72l2 2q26 19 43 36q-55 14 -115 16h-7q-24 1 -48 3q-138 7 -224 14.5t-86 18.5q0 33 358 57q32 3 70 2z" glyph-name="three" horiz-adv-x="838" unicode="3"/>
<glyph d="M639 1088q4 0 6 -2q12 -20 -72 -112t-228 -236q-72 -73 -153 -156q-9 -11 -18 -20q-11 -11 -19 -21h1l12 -2q53 -3 110 1q75 4 144 10l58 4v2v2v2v1q-1 122 37 225q31 76 69.5 113.5t69.5 47.5t37 3q9 -15 -15 -63q-27 -51 -46 -136q-14 -77 -14 -183v-8q205 0 208 -41 q-12 -13 -209 -52q-1 -125 -38 -223q-25 -61 -51.5 -86.5t-39.5 -17.5q-14 11 -6 70q2 24 3 55q2 47 -2 113q-1 29 -2 62q-93 -18 -192 -30q-59 -8 -129 -7q-41 -5 -110 30q-28 17 -43 59q-7 39 2 64l2 6q39 82 85 116q201 193 352.5 300.5t190.5 109.5z" glyph-name="four" horiz-adv-x="866" unicode="4"/>
<glyph d="M499 1221q2 1 9.5 -7.5t15 -26t8 -44.5t-11.5 -65q55 1 121 -3v0h1h1.5h0.5v0q125 -3 202 14q17 4 32 8q25 6 42 8t25 -5q9 -11 -3.5 -37.5t-53.5 -58.5q-89 -69 -249 -67h-4q-96 6 -178 22q-14 -19 -29 -39q-13 -15 -27 -33q-37 -43 -66 -85q-9 -7 -17 -14q-2 -1 -4 -3 q66 5 142 -9q63 -10 120 -59q22 -19 39 -44q34 -68 32.5 -131.5t-21.5 -111.5q-42 -110 -136 -155q-104 -45 -193 -34q-114 11 -185 54q-51 29 -75.5 57.5t-30.5 48.5t-1 24q8 4 36 -13q32 -21 102 -46q65 -21 156 -18q71 2 133 36q50 30 66 85l2 8q9 38 11.5 72t-12.5 51 q-4 8 -12 15q-23 16 -62 27q-55 12 -118 10q-13 0 -27 -1h-20q-17 11 -39 23q-1 1 -2 1q-4 3 -9 6q-3 1 -5 4q-5 120 33 188q52 61 100 104q3 3 6 5q-32 9 -36 24q-4 32 94 59l26 6q11 12 20 26q35 60 40 98q4 23 11 26z" glyph-name="five" horiz-adv-x="994" unicode="5"/>
<glyph d="M492 1020h6q3 -11 -44 -43q-69 -43 -164 -147q-40 -49 -75 -131q-37 -84 -55 -180q-4 -38 -4.5 -72t12.5 -57q1 -7 7 -12q15 -14 44 -20q0 4 1 10q0 22 9 59.5t42.5 79.5t107.5 78q40 21 100 -2q47 -28 59 -74q24 -106 -46 -189q-100 -104 -245 -102q-92 -6 -168 67 q-19 19 -34 44q-45 121 -16 214q26 119 78 209q44 88 111 151q101 82 176.5 101.5t97.5 15.5zM424 492h-7q-3 -1 -5 -1q-62 -12 -103.5 -48.5t-64.5 -66.5q-10 -12 -17 -20l20 -2q101 0 150 50q17 20 26.5 40t4.5 36q-1 5 -1 7.5v2.5q1 1 0.5 1.5t-3.5 0.5zM217 348 q-3 -1 -5 0q3 -2 5 0z" glyph-name="six" horiz-adv-x="602" unicode="6"/>
<glyph d="M601 1040q20 -3 24 -85.5t-46 -217.5q-53 -126 -143 -257l-2 -2q-43 -65 -74 -112q-42 -62 -73 -111.5t-64 -111.5q-20 -39 -34 -70q-32 -75 -51 -76q-15 2 -19.5 49.5t14.5 129.5q42 171 187 378l1 2q22 33 40 61q61 87 110 171q46 84 71 147q-28 -38 -107 -62 q-75 -17 -155 -1q-3 1 -5 1q-43 8 -90 22.5t-78 24.5q-13 5 -20 7q-9 3 -17 5q-25 7 -42.5 14.5t-20.5 18.5q-7 33 82 57q95 16 212 -13v0l1 -0.5t2 -0.5h1l12 -2q58 -12 100 -12q47 0 84 8q22 4 38.5 5t23.5 -7q3 -3 3 -9q20 49 35 49z" glyph-name="seven" horiz-adv-x="669" unicode="7"/>
<glyph d="M385 1072q86 2 159 -37q54 -40 68 -74.5t6.5 -61t-18.5 -42.5l-4 -8q-1 5 -2 11q-5 29 -22 64.5t-61 49.5q-26 11 -54 11.5t-65 -4.5q-27 -3 -61 -5l-10 -2q-70 -4 -119 -31q-8 -7 -13.5 -13.5t-2.5 -10.5q-1 -17 18 -47q3 -7 8 -15q31 -49 78 -100q31 -36 67 -73 q21 12 41 23q68 36 119 67q84 55 121 89q31 28 38 24q10 -6 -15 -54t-103 -116q-61 -52 -136 -103q39 -42 79 -88q43 -48 81 -115q35 -41 20 -133q-6 -16 -14 -31q-48 -82 -122 -114q-95 -46 -194 -43q-98 -3 -185 62q-87 93 -64 200q33 123 114 187q51 45 104 78 q-25 28 -49 58q-47 56 -85 122q-34 49 -36 128q16 84 79 113q100 40 176 33q30 1 59 1zM312 537q-52 -37 -95 -81q-58 -57 -71 -125q-2 -24 4 -47t21 -32q35 -27 102 -27q69 0 131 30q45 25 64 55q2 5 2.5 8t0 5t-2.5 6q-2 5 -7 19q-25 44 -64 91q-42 50 -85 98z" glyph-name="eight" horiz-adv-x="726" unicode="8"/>
<glyph d="M357 1055q8 0 17 -1q115 -33 148 -122q54 -154 40 -278q-9 -123 -47.5 -223t-70.5 -156q-67 -128 -87 -125q-20 10 17 152q4 18 11 41q19 64 37 148t15 163v13q-1 6 -1 11q-55 -60 -223 -112q-39 -13 -96 -9q-37 2 -78 36q-31 35 -35 75q-4 42 5 76q23 82 73 147 q48 67 125 119q57 44 150 45zM398 874q-25 41 -50 43t-68 -22q-53 -34 -93 -85q-42 -50 -58 -99q-1 -3 -2 -7q-5 -12 -5 -22.5t14 -15.5q25 -6 59 -2q137 18 211 45q15 5 27 8q-3 88 -35 157z" glyph-name="nine" horiz-adv-x="616" unicode="9"/>
<glyph d="M78 783q12 0 26 -3q28 -8 44 -24.5t13 -34.5q-5 -17 -27 -24.5t-50 -0.5q-29 8 -45 24t-12 34q9 28 51 29zM65 374q20 0 36 -15q18 -19 29.5 -39.5t9.5 -29.5q-5 -19 -28.5 -29.5t-52.5 -2.5q-27 8 -43 28.5t-7 46.5q20 42 56 41z" glyph-name="colon" horiz-adv-x="204" unicode=":"/>
<glyph d="M515 254q15 0 15 10q0 23 -66 77.5t-201 128.5q-38 17 -93 53q-31 22 -33 30l2 12q5 22 42 65l8 12q90 106 170 185q151 155 151 189q-1 10 -13 10q-31 0 -129 -60q-123 -72 -282 -236q-39 -38 -71 -105q-15 -35 -15 -64q0 -36 18 -74q41 -60 82 -77q61 -33 111 -52 q257 -104 304 -104z" glyph-name="less" horiz-adv-x="570" unicode="&lt;"/>
<glyph d="M31 749q-31 0 -31 20q0 33 66 76q88 56 234 61l6 1q137 0 228 -21q88 -16 95 -44q-1 -31 -93 -53q-94 -19 -225 -20l-82 -4q-57 -2 -129 -9q-63 -7 -69 -7zM57 394h-4q-23 0 -23 18q0 36 63 79q79 51 203 56q89 0 170 -12q181 -30 191 -65q0 -31 -95 -52 q-68 -12 -154 -12q-32 0 -66 2h-99q-60 0 -115 -5q-51 -9 -71 -9z" glyph-name="equal" horiz-adv-x="697" unicode="="/>
<glyph d="M15 240q-15 0 -15 10q0 23 66 77.5t201 128.5q38 17 93 53q31 22 33 30l-2 12q-5 21 -41 65l-9 12q-90 106 -170 185q-151 155 -151 189q1 10 13 10q31 0 129 -60q123 -71 282 -236q39 -38 71 -105q15 -36 15 -64q0 -35 -17 -74q-42 -59 -83 -77q-60 -33 -111 -52 q-262 -104 -304 -104z" glyph-name="greater" horiz-adv-x="570" unicode="&gt;"/>
<glyph d="M220 423h-3q-30 0 -73 17q-20 8 -38 29q-26 28 -26 63q0 83 95 185q86 91 194 177q39 32 73 66q22 22 22 24q13 29 13 57q0 40 -49 68q-55 29 -117 29q-107 0 -146 -100q-9 -19 -15 -24v1q0 3 -6 12q-19 28 -19 57q0 18 10.5 46.5t61.5 70.5q64 48 159 48q17 0 36 -3 q96 -5 180 -95q40 -62 40 -126q0 -50 -25 -102q-25 -44 -50 -64q-28 -28 -92 -78l-70 -56q-130 -97 -180 -159q-6 -9 -12 -16q-10 -14 -10 -21q-2 -1 -2 -3q0 -5 12 -20q39 -31 69 -44t30 -19q0 -4 -15.5 -11.5t-46.5 -8.5zM147 1013l3 1q-1 -1 -3 -1zM47 82q-36 0 -45 57 q-2 11 -2 24q0 38 19 90q18 45 54 69t68 24q48 0 51 -33q0 -14 -14 -42l-5 -10q-11 -27 -25 -58l-3 -6q-19 -47 -49 -86q-26 -29 -49 -29z" glyph-name="question" horiz-adv-x="652" unicode="?"/>
<glyph d="M312 254q-28 0 -58 2q-148 38 -217 182q-37 80 -37 164q0 85 37 173q76 154 229 246q129 85 296 93q197 0 309 -154q67 -97 67 -210q0 -33 -6 -67q-26 -105 -100 -175q-46 -27 -81 -27q-29 0 -51 17q-50 34 -77 65q-35 35 -51 45q-142 -136 -259 -147q-65 0 -101 53 q-22 47 -22 87q0 27 10 51q26 78 75 123q76 75 166 75q62 0 90 -45q4 -5 6 -5q-1 -1 -5 -1t-13 2q-18 6 -50 6q-79 0 -141 -79q-47 -61 -47 -126q0 -42 24 -42q18 0 53 22l7 3q70 45 137 118q43 27 78 27q27 0 49 -16q50 -31 79 -62l46 -39q51 61 51 133q0 68 -47 138 q-58 81 -170 92q-137 0 -252 -70q-124 -75 -182 -188q-30 -65 -30 -128q0 -52 21 -102q49 -106 131 -128q27 -7 56 -7q45 0 128 18l51 11q102 27 194 30q149 -2 183 -96q2 -6 3.5 -8t2.5 -2h-1q-5 0 -18 8q-57 35 -125 35q-75 0 -179 -38q-32 -11 -76 -24q-77 -33 -183 -33z " glyph-name="at" horiz-adv-x="978" unicode="@"/>
<glyph d="M938 1255q65 -3 128 -38q135 -112 163 -234q75 -218 94 -417.5t13 -331.5q-11 -285 -46 -295q-35 7 -77 287q-4 23 -8 50q-8 50 -18 110q-157 -54 -426 -5q-213 53 -335 142q-99 -138 -177 -252q-225 -340 -275 -331q-18 16 61 211t260 497q-24 38 -14 54q12 16 53 10 q22 36 47 72q88 140 214 281q65 77 170 142q23 14 49 26q59 26 124 22zM940 1053q-20 1 -46 -9q-14 -5 -28 -13q-59 -38 -120 -101l-4 -4q-112 -121 -205 -251l-6 -8t-6 -7q122 -41 281 -79q182 -38 319 -50q19 -2 36 -4q-37 195 -113 385q-6 11 -11 22q-19 40 -38 71 t-42 41q-5 6 -17 7z" glyph-name="A" horiz-adv-x="1406" unicode="A"/>
<glyph d="M557 1394q39 1 80 -2q221 1 408 -202q9 -11 17 -23q62 -97 44 -217q-32 -125 -115 -189q2 -1 5 -1q10 -4 21 -9q105 -46 156 -174q32 -121 -11 -226q-14 -35 -32 -68q-139 -217 -337 -290q-190 -79 -329.5 -76t-220.5 38t-97 53q-55 -164 -99 -158q-35 18 -37 200v13 q-5 78 -7.5 207.5t6.5 254.5q1 1 1 3v6q16 192 85 343q51 106 108.5 163t102 74t55.5 5q15 -22 -28 -106q-37 -76 -73 -198q-33 -126 -46 -300v-1t-0.5 -2.5t-0.5 -3v-1.5q-4 -47 -7 -90q-12 -214 -53 -383q-1 -4 -2 -7l-2 -6q23 11 93 15q82 5 206 29t263 97 q152 80 241 219q12 21 19 43q22 58 12 95q-3 18 -18 34.5t-35 29.5q-38 24 -88.5 33.5t-100.5 12.5q-9 1 -18 1h-12q-137 -27 -229 -20q-190 14 -194 50q5 32 183 70q24 6 52 14l8 2q39 13 87 24q134 37 238 128q21 22 36 44t16 43q5 32 -19 73q-3 6 -7 13q-40 55 -115 86.5 t-152 46.5q-152 24 -276.5 5.5t-203.5 -42.5q-89 -27 -102 -11v0q2 9 55 65.5t167.5 112t301.5 60.5z" glyph-name="B" horiz-adv-x="1245" unicode="B"/>
<glyph d="M1137 1003q-5 -1 -3.5 4.5t5.5 16.5q12 23 21.5 68t-4.5 110t-75 146v0q-97 106 -261 81q-156 -37 -282 -147q-141 -113 -258 -274q-110 -139 -191 -321q-79 -183 -84 -376q-5 -176 111 -314q178 -146 351 -133q187 -9 327 55v0q85 45 126.5 93t55 85t14.5 49q0 3 1 3 q-10 6 -47 -23q-60 -53 -194 -97v0q-104 -28 -272 -4q-65 9 -127 31.5t-97 66.5q-53 66 -50 184q4 146 74 299q70 151 163 286q102 148 215 253q105 100 201 133q84 23 133 -17v0q61 -49 88.5 -109t37.5 -104t21 -45z" glyph-name="C" horiz-adv-x="1210" unicode="C"/>
<glyph d="M571 1323q205 11 447 -87q134 -55 229 -201q71 -132 48 -281q-11 -60 -32 -117q-129 -291 -353 -432q-240 -171 -440 -238.5t-324 -74.5q-39 -71 -74.5 -101.5t-51.5 -20.5q-20 17 1 121q-8 1 -9 3q-1 7 12 16q18 97 26 252q1 81 -1 176q-2 101 -1 216v31q-1 230 77 419 q69 140 147 190q-137 5 -143 28q0 35 238 82q83 15 204 19zM427 1187l-8 -10q-32 -36 -70 -93.5t-61 -139.5q-36 -139 -35 -337q0 -13 -1 -27v-4.5v-9.5v-9.5v-5.5q2 -218 -25 -406q-15 -89 -39 -156q244 91 604 367q188 148 283 350q14 39 19 79q13 87 -22 154 q-45 80 -138 130q-125 67 -261.5 90.5t-245.5 27.5z" glyph-name="D" horiz-adv-x="1358" unicode="D"/>
<glyph d="M1020 1324q89 0 100 -29q9 -45 -126.5 -113t-361.5 -107q-144 -22 -261 -19q-18 -83 -44 -194q-23 -101 -50 -221q-13 -58 -26 -122q51 25 113 43q170 42 280.5 19.5t118.5 -60.5q1 -47 -100.5 -85.5t-246.5 -72.5q-75 -18 -141 -37q-31 -8 -60 -16q-7 -57 -9 -113 q-2 -44 0 -86q3 -96 33 -156q26 -51 74 -70q39 -17 90 -16t100 8q154 25 252 52q111 33 125 16q7 -17 -75.5 -86.5t-265.5 -133.5q-112 -47 -282 -16q-121 36 -191 151q-61 119 -63 241q-3 52 -1 104q21 275 97 483q74 232 147 379q-147 26 -147 67q0 54 242 97q30 38 43 34 q9 -4 12 -23q95 17 204 34q265 45 420 48z" glyph-name="E" horiz-adv-x="1114" unicode="E"/>
<glyph d="M581 1561q5 0 9 -2q15 -22 -28 -247q99 8 215 2h2q113 -6 233 -19t185 -22q164 -17 179 -54q2 -48 -172 -90q-179 -35 -434 -19h-3q-115 5 -213 10q-13 1 -25 1q-1 -7 -2 -13q-1 -8 -3 -16q-19 -129 -40 -281q-5 -39 -11 -80h5q3 1 7 1h2h3q247 13 398.5 -36.5 t153.5 -87.5q-6 -36 -92 -48t-222 -17q-103 -5 -221 -14h-5q-31 -3 -59 -7q-40 -277 -99 -479q-33 -110 -73 -180q-34 -59 -65.5 -78t-41.5 -7q-4 4 -0.5 37.5t12.5 81.5q5 36 8.5 66t7.5 72q1 17 3 37q3 24 6 64q7 70 16 165.5t19 184.5q-39 -10 -76 -20q-18 -5 -34 -10 q-103 -36 -129 -14q-14 17 9 58t88 93q67 52 166 90v1q34 246 89 445q-151 -2 -171 31q-11 48 159 111q31 10 64 17q112 267 180 273z" glyph-name="F" horiz-adv-x="1120" unicode="F"/>
<glyph d="M831 1368q114 -5 188 -31.5t110.5 -52.5l36.5 -26q-6 -13 -78 -7q-136 21 -397 -46q-153 -44 -283 -181q-171 -189 -199 -492q-4 -51 -2 -100q3 -144 55 -248q47 -88 109 -103q45 -14 101 8t109 54q193 133 290 245v1q-1 1 -1 3q-7 24 -13 46q-18 85 -53 118 q-25 27 -69 41q-53 17 -97 24q-32 6 -53 12.5t-25 18.5q-3 11 15.5 32.5t61.5 40.5t114 23q76 7 167 -48q128 -110 152 -262q0 -4 1 -7v-1q22 -108 30 -194q5 -46 11 -85q21 -93 45 -148q27 -63 16 -88q-9 -13 -49 -6t-90 51t-88 143q-33 85 -49 167q-66 -118 -222 -254 q-55 -52 -140.5 -88.5t-197.5 -27.5q-170 42 -248 190q-83 158 -86 334q-3 61 2 123q35 374 268 606q184 169 382 200q98 17 176 15z" glyph-name="G" horiz-adv-x="1224" unicode="G"/>
<glyph d="M380 1436q3 0 5 -1q26 -17 9 -171q-4 -38 -7 -81q-5 -86 -8 -195q-3 -146 -15 -323q88 18 192 41q36 7 74 16q9 1 18 3q293 68 465 82q38 179 109 306q56 98 104.5 139.5t66.5 30.5q20 -21 -15 -131q-11 -41 -23 -92q-26 -107 -41 -224t-28 -286l-1 -6q-11 -322 -74 -541 q-75 -213 -125 -203q-29 18 -18 178q1 23 1 48q2 64 2 142q-2 169 11 390v2v4q3 53 9 103q-148 -79 -398 -141q-9 -2 -19 -4q-182 -41 -327 -37q-22 -182 -79 -336q-84 -199 -176.5 -277t-115.5 -61q-15 20 30 116q47 101 93 275q32 142 47 314q-92 34 -88 65q8 29 98 44 q19 346 90 585q81 221 134 226z" glyph-name="H" horiz-adv-x="1420" unicode="H"/>
<glyph d="M375 1439q-62 17 -208 -188q-138 -213 -159 -557v-0.5v-1t-0.5 -0.5h-0.5q-7 -158 3.5 -307.5t24.5 -245.5q25 -218 73 -229q58 4 105 226q30 178 37 395q3 70 8 153v0.5v1v0.5v0q20 323 77 526q13 49 25 89q43 122 15 138z" glyph-name="I" horiz-adv-x="386" unicode="I"/>
<glyph d="M915 1411q3 1 5 0q34 -19 27 -252v-10v-40q1 -107 -1.5 -271.5t-16.5 -312.5v-6q-1 -6 -2 -13q-23 -249 -104 -444q-92 -198 -187.5 -274.5t-117.5 -57.5q-3 -20 -36 -34.5t-94 -11.5q-61 2 -138.5 38t-144.5 122q-8 13 -15 25q-90 185 -76 309q7 120 49 132 q44 4 94 -104q18 -36 35 -80q29 -78 73 -154q5 -8 11 -16q22 -42 62 -73.5t79 -55.5q6 -4 11 -7q67 -41 86 -73q5 29 38 96q51 100 105 277q46 174 67 407q1 4 1 8q0 5 1 10q7 79 13 147q18 263 65 474q61 232 111 245z" glyph-name="J" horiz-adv-x="994" unicode="J"/>
<glyph d="M530 1361q19 0 48 -22q34 -27 57 -77q44 -98 45 -240q4 -169 -38 -369q51 36 111 75q101 64 208 144l4 4h1q121 92 188 184q68 100 95 177q27 74 51 79q14 0 34.5 -41t21 -118.5t-47.5 -184.5q-71 -145 -218 -258l-6 -4q-205 -143 -369 -195q40 -32 82 -75 q63 -66 126 -142q44 -53 90 -104h1q100 -115 193 -156q64 -29 126.5 -33.5t111.5 -1.5q34 1 55.5 -0.5t27.5 -12.5q0 -1 -11.5 -19.5t-37.5 -43t-69.5 -45.5t-107 -28t-149.5 11q-170 49 -291 192v0q-109 128 -181 241q-10 15 -19 29q-42 59 -78 108q-2 -5 -4 -11l-8 -26 q-53 -155 -124 -283q-61 -118 -151 -202q-36 -34 -89 -56q-51 -19 -104 -2q-61 31 -76 69q-28 55 -25 87t13 36q7 2 17 -5.5t24 -20.5q19 -18 45 -37q11 -7 20 -11t14 -1q3 1 8 5q3 3 7 6q12 9 28 29q3 4 7 9q49 66 95 177q51 119 97 264q10 31 20 63q89 287 119 506 q0 2 1 4q9 66 12.5 110t-0.5 87v6q-2 17 -4 29.5t-6 23.5q-6 19 -15 32q-10 14 -9 24q0 4 9 9t25 5z" glyph-name="K" horiz-adv-x="1568" unicode="K"/>
<glyph d="M451 1415q3 0 6 -1q36 -23 -7 -241q-15 -92 -46 -248.5t-74 -305.5l-1 -4q-79 -269 -198 -445q76 -18 159 -41q69 -20 159 -42q10 -3 21 -6q157 -39 267 -40q108 4 177 31q59 22 82 11q6 -4 4.5 -29t-21.5 -59t-69.5 -67t-140.5 -53q-166 -31 -351 15q-12 3 -25 6 q-222 63 -370 137q-137 -134 -177 -111q-22 26 48 162q2 6 5 11q-83 44 -80 73q9 32 125 29q79 180 166 473l1 4q4 13 7 25q83 308 179 516q100 196 154 200z" glyph-name="L" horiz-adv-x="1142" unicode="L"/>
<glyph d="M1478 -175q-15 19 -44 536l-4 83q-1 258 -63 531l-10 33q-22 88 -60 136q-11 -9 -28 -32l-26 -32q-57 -81 -143 -241q-78 -156 -193 -315q-39 -65 -136 -124l-18 -8q-33 -16 -74 -16q-20 0 -41 4q-74 29 -115 77q-2 2 -3 6l-1 1q-9 22 -17 37q-6 28 -26 144 q-42 243 -61 321q-24 126 -61 228q-38 -71 -67 -159q-61 -194 -94 -371l-39 -195q-100 -505 -147 -505q-7 6 -7 64q0 79 13 254q29 483 110 803q25 148 149 302q20 28 85 40q61 -3 88 -29q63 -62 75 -107q63 -148 92 -298q35 -153 64 -312q6 -40 17 -91q13 12 31 34l22 25 q88 117 163 260l60 104q52 93 119 183q40 69 146 127q28 13 61 13q24 0 51 -7q67 -26 92 -65q87 -134 98 -247q38 -241 38 -439q0 -70 -12 -217q-26 -526 -84 -536z" glyph-name="M" horiz-adv-x="1614" unicode="M"/>
<glyph d="M1405 1326q4 0 6 -2q19 -19 -11 -127q-27 -100 -47 -263q-12 -138 -13 -294q0 -45 -1 -98v-6q5 -353 -87 -586q-18 -43 -37 -77q29 -17 28 -30q0 -2 -15.5 -8t-44.5 -12q-63 -81 -89 -68q-15 11 -6 65q-120 2 -284 158q-142 160 -210 388q0 2 -1 3q-1 2 -1 5 q-45 143 -75 266q-21 80 -41 149q-43 130 -83 211q-14 -45 -26 -99q-25 -123 -41 -263q-5 -39 -11 -84v-1t-0.5 -2.5t-0.5 -3v-2.5v-1q-28 -313 -131 -515q-53 -94 -100 -132t-65 -25q-18 19 9 109q11 42 23 98q18 96 31 234q11 118 30 257q0 1 1 3v7q24 205 86 372 q72 174 152.5 242.5t104.5 48.5q17 -22 -23 -122q101 -60 206 -270q68 -152 117 -319q15 -45 31 -95v0v-0.5t0.5 -1.5t0.5 -2q1 -1 1 -2v-1v0q64 -209 153 -338q80 -107 167 -157q4 25 7 53q12 89 14 156.5t2 144.5q-1 92 3 251l1 6q0 228 44 418q49 187 120.5 275.5 t105.5 86.5z" glyph-name="N" horiz-adv-x="1470" unicode="N"/>
<glyph d="M908 1280q0 3 -35.5 15.5t-101.5 16.5t-160 -19t-210 -92v0q-102 -58 -196 -166.5t-137 -269.5q-68 -224 -17 -510q37 -178 215 -289q80 -39 165 -47q88 -7 168 11q189 43 331 143q165 112 273 261v0q117 159 145 337q21 214 -73 357q-110 158 -210 203t-141 45 q-17 1 -16 4q-3 -10 38 -42q43 -33 104.5 -99t111.5 -173q55 -115 26 -266q-30 -129 -132 -254v0q-94 -117 -234 -207q-123 -79 -262 -109q-58 -10 -112 -7q-51 3 -89 24q-41 18 -70 62t-46 97q-45 207 2 424q19 114 87 205.5t146 151.5v0q117 85 215 121.5t157 48.5 q56 12 58 23z" glyph-name="O" horiz-adv-x="1409" unicode="O"/>
<glyph d="M821 1328q44 -1 91 -11q179 -47 274 -211q57 -105 73 -222q8 -59 7 -116q-3 -187 -79 -347q-77 -167 -230 -257q-202 -89 -364 -25q-190 75 -270 168q0 -4 -1 -7q0 -4 -1 -8v-1v-2.5v-2.5v-2v-1q-25 -335 -105 -556q-90 -214 -140 -201q-28 20 -5 184q2 24 5 50 q8 88 15 202q9 153 26 340v3q1 3 1 6q28 339 133 552q29 58 57 97q-123 -74 -198 -128q-92 -69 -107 -58q-3 5 40.5 77.5t151.5 178.5t297 210q131 82 329 88zM794 1141q-117 -6 -230 -54q-76 -31 -143 -65q1 -37 -18 -122q-9 -38 -18 -83q-19 -100 -29 -186.5t-21 -200.5 l-2 -22q106 -78 301 -125q57 -11 119 -4.5t113 40.5q89 59 143 184q52 121 53 266q-1 44 -6 87q-11 85 -47 152q-54 95 -144 121q-33 11 -71 12z" glyph-name="P" horiz-adv-x="1307" unicode="P"/>
<glyph d="M1053 1377q51 -2 52 -5q1 -15 -97 -52q-176 -57 -494 -265q-163 -107 -257 -288q-55 -122 -27 -260q27 -121 118 -224q33 -37 71 -68q61 -48 130 -74q66 -23 130 -24q-11 20 -20 39q-20 39 -38 72q-38 66 -71 115q-60 81 -51 110q15 25 92 3.5t174 -125.5q54 -62 95 -130 q33 36 57 79q97 210 97 428q1 69 6 119q5 53 3.5 94t-18.5 80q-25 73 -73.5 116.5t-85.5 65.5q-24 14 -31 22q6 -1 21 -1q40 6 115 -17t154 -134q72 -150 61 -329v-16q28 -228 -82 -513q-40 -88 -117 -160q31 -44 66 -77q75 -70 144 -105q34 -19 54 -34t20 -30 q-2 -13 -43.5 -30.5t-115 -11.5t-170.5 64q-75 51 -132 123q-160 -41 -311 17q-101 37 -186 104q-54 42 -98 93q-124 141 -160 320q-35 209 54 381q144 240 340 339q221 123 384.5 158.5t239.5 30.5zM815 1205q-5 2 -2 7q-1 -3 2 -7z" glyph-name="Q" horiz-adv-x="1291" unicode="Q"/>
<glyph d="M-112 -148l-4 2q-9 8 -3 42q7 42 35 122q57 173 136 483q-134 25 -206 54t-70 39q4 23 166 14q61 -1 138 0q75 301 170 496q56 110 99 156q-63 -14 -130 -39q-28 -11 -44 -14q10 9 25 33q30 56 113.5 118t263.5 41l10 -1q50 -9 110 -27q111 -35 211.5 -125t144.5 -237 q19 -74 7 -149t-51 -136q-86 -122 -205 -170q-200 -80 -377 -78q44 -37 93 -82l44 -38q130 -108 235 -171q119 -70 119 -104q-6 -23 -75 -25q-27 -1 -60 5q-50 8 -133.5 38t-199.5 128q-151 141 -224 249q-1 0 -1 1l-1 1q-75 -276 -179 -453q-115 -180 -157 -173zM175 1207 q-9 -8 -17 2q4 -5 17 -2zM551 1266q-78 13 -147 3q0 -49 -35 -186q-3 -10 -5 -20q-15 -65 -34 -146q-30 -136 -71 -303q60 4 125 10q178 10 348 83q86 42 133 109q5 7 8 16q32 64 16 137q-22 94 -92 163t-150 105q-48 21 -96 29z" glyph-name="R" horiz-adv-x="1070" unicode="R"/>
<glyph d="M317 -100q303 0 593 259q41 36 68 102q11 33 11 67q0 24 -5 48q-41 121 -122 180q-107 93 -227 164q-61 36 -183 106q-99 58 -175 118l-25 23q-49 39 -49 66q0 16 25 40v0q87 73 207 113l21 9q131 51 230 51l30 -2q93 -9 114 -71q6 -20 23 -20q3 0 14.5 2t11.5 31t-24 72 q-41 59 -122 79q-56 15 -119 15q-93 0 -200 -32q-134 -24 -287 -130q-41 -30 -71 -93q-13 -33 -13 -67q0 -22 6 -44q42 -118 119 -170q94 -78 194 -137q59 -37 182 -109q146 -84 221 -159q58 -51 58 -86q0 -22 -27 -52q-199 -194 -407 -245q-75 -19 -136 -19q-38 0 -70 7 q-92 22 -157 83l-26 10q0 -111 155 -179q72 -30 162 -30z" glyph-name="S" horiz-adv-x="1029" unicode="S"/>
<glyph d="M364 -201q-28 6 -1 149q20 138 31 286q27 363 69 542q32 142 85 253q-121 25 -284 62l-108 24q-119 27 -129 57l1 4q11 46 208 68q187 11 433 -32q92 90 129 83q16 -4 7 -43q-6 -23 -21 -59q249 -40 423 -43l65 -2q73 3 108 -5q37 -9 33 -27q-5 -18 -47 -48.5t-141 -59.5 q-205 -59 -511 -11q-13 -42 -24 -90q-36 -153 -58 -357q-17 -187 -52 -338q-28 -121 -67 -220q-99 -205 -149 -193z" glyph-name="T" horiz-adv-x="1101" unicode="T"/>
<glyph d="M642 -5q285 0 444 236q74 152 84 301q5 65 5 123q0 74 -8 137q-24 248 -61 387.5t-46 139.5q-22 0 -30.5 -135.5t-14.5 -359.5l-2 -36q0 -305 -95 -461q-34 -60 -113.5 -91.5t-174.5 -36.5q-37 1 -73 3q-271 10 -342 202q-38 121 -38 252q0 136 17 414q4 81 4 144 q0 168 -24 171q-3 -1 -35 -78.5t-66 -219.5q-42 -161 -67 -400q-6 -46 -6 -95q0 -115 34 -249q47 -158 201 -260q149 -80 309 -87l58 -1h40z" glyph-name="U" horiz-adv-x="1215" unicode="U"/>
<glyph d="M488 2h-11q-152 16 -262 224q-82 193 -65 418q2 87 6 164q8 128 3 229q-23 175 -70 264q-25 50 -23 71q1 6 3.5 9.5t13.5 1.5q9 -1 32.5 -7t67.5 -39q107 -81 150 -276q34 -197 20 -422v-48q-16 -306 100 -437q49 -55 92 -90l7 -6q-3 10 -1 26q6 59 87 196 q114 179 304 387l44 52q215 249 322 428l46 78q60 113 90 112q21 -5 24 -70q1 -22 -2 -48q-30 -289 -323 -632l-4 -4q-96 -110 -207 -218q-167 -163 -183 -175q-141 -141 -185 -142q32 -26 30 -41v-1q0 1 -2 1q-3 1 -14 -2q-29 -7 -90 -3z" glyph-name="V" horiz-adv-x="1448" unicode="V"/>
<glyph d="M1077 -27q-103 0 -191 70q-63 63 -81 136q-17 86 -17 164q0 67 13 128q4 39 10 77q14 87 15 161l-4 41q-26 -4 -65 -50q0 -1 -1 -1q-61 -76 -115 -174l-28 -47q-63 -124 -170 -240q-44 -49 -124 -77q-30 -7 -59 -7q-53 0 -99 25q-161 107 -161 279q0 164 48 280 q65 181 125 299q111 233 131 235q9 -5 9 -31q0 -74 -65 -292q-92 -300 -92 -428q0 -35 4 -69q8 -38 28.5 -71t52.5 -44q9 -4 19 -4q5 0 8 2q13 3 35 26l8 7q67 74 143 226q178 359 369 359q121 0 179 -105q28 -70 28 -122v-15q-3 -119 -21 -217q-19 -122 -19 -182 q0 -45 8 -81q8 -32 21 -43q13 -15 52 -22l17 -1q63 0 130 90q105 159 159 337q60 174 108 341l26 84q101 332 140 332q7 0 7 -30q0 -73 -40 -327q-25 -185 -90 -446q-39 -186 -161 -395q-44 -73 -132 -134q-72 -44 -158 -44z" glyph-name="W" horiz-adv-x="1698" unicode="W"/>
<glyph d="M49 -162v1q-6 7 -23.5 49t-24.5 114q-1 15 -1 32q0 61 23 149t104 206q105 143 256 253q-176 278 -176 502q0 98 29 102q28 0 78 -114l50 -97q68 -131 181 -282q35 23 193 120q150 88 267 170q212 168 297 283q58 71 79 74q14 0 15 -33q0 -18 -9 -68.5t-72 -160.5 t-199 -233q-186 -159 -427 -302l-12 -8q6 -8 13 -15q235 -247 427 -360q55 -35 99 -60q103 -52 103 -80v-1q-6 -24 -82 -24q-68 0 -180 34q-274 81 -553 392q-141 -92 -238 -201q-137 -157 -184 -366q-16 -72 -33 -76z" glyph-name="X" horiz-adv-x="1436" unicode="X"/>
<glyph d="M1378 117q3 1 3 4zM368 -133q-17 0 -46 143q-9 45 -9 99q0 119 44 286q39 123 113 243q-18 -9 -43 -9q-17 0 -52 7.5t-92 82.5q-66 94 -98 202l-5 14l-17 50q-18 57 -40 94q-12 27 -33 47t-41.5 35.5t-34 28.5t-14.5 27q0 3 12 15q37 37 94 37q72 0 153 -72 q82 -85 115 -195q2 -8 5 -15q20 -63 32 -112q25 -102 62 -152q17 -25 24 -45q27 40 58 78q0 3 4 5q133 163 393 420l51 50q141 149 181 152q3 0 5 -2q9 -7 9 -25q0 -58 -99 -230q-108 -170 -255 -339q-57 -68 -126 -154q-1 -1 -2 -2.5t-2 -1.5q-217 -273 -292 -630 q-24 -132 -54 -132z" glyph-name="Y" horiz-adv-x="902" unicode="Y"/>
<glyph d="M562 -23q-65 0 -127 3l-31 -1q-132 0 -297 60q-47 10 -97 94q-10 37 -10 67q0 44 21 72q81 116 166 160q1 0 3 1t4 3q130 87 254 157l100 58q294 164 505 330q159 127 224 242q-142 -95 -410 -116q-33 -5 -145 -5q-37 0 -105 2q-270 11 -288 59v3q0 45 143 90 q151 41 367 54l130 11q228 20 246 24q66 9 107 9h8q5 16 8 29q8 43 17 43q5 0 16 -17q25 -40 25 -106q0 -18 -4 -56t-35 -110q-60 -137 -199 -273q-238 -227 -596 -437l-53 -33q-143 -84 -206 -132q-21 -16 -41.5 -30t-35.5 -26q73 -23 168 -31q201 -22 420 -25 q190 -3 365 -19q283 -37 285 -77q-8 -23 -201 -33l-85 -6l-71 -6q-329 -32 -545 -32z" glyph-name="Z" horiz-adv-x="1504" unicode="Z"/>
<glyph d="M156 1294q1 1 3 0q10 -3 12 -34q77 21 180 22q135 -2 224 -27t89 -47q0 -31 -90.5 -44.5t-222.5 -12.5q-103 0 -182 3q0 -10 -1 -21q-1 -13 -1 -28q-5 -107 -6.5 -197.5t-1.5 -243.5v-1q3 -268 -18 -450q-6 -48 -13 -85q64 10 145 11q114 3 192 -10t82 -40 q-1 -28 -77.5 -52t-194.5 -28q-118 -1 -195 19t-80 48q3 23 59 38q-5 42 -10 101q-6 77 -13 200.5t-7 247.5v1q0 275 47 455q6 22 12 42q-42 7 -46 21q-2 30 77 62q22 46 37 50z" glyph-name="bracketleft" horiz-adv-x="704" unicode="["/>
<glyph d="M12 1368q-12 -10 14 -93q14 -47 30 -115q20 -83 30 -148.5t19 -143.5q9 -82 28 -211q1 -6 1 -11q25 -202 87 -361q72 -166 148 -233t91 -55q8 11 -27 72q-50 83 -106 252q-40 147 -63 343l-0.5 1.5t-0.5 3.5t-0.5 3.5l-0.5 1.5q-34 314 -119 515q-43 96 -81 141t-50 38z " glyph-name="backslash" horiz-adv-x="508" unicode="\"/>
<glyph d="M508 1336h-3q-10 -3 -12 -34q-77 21 -181 22q-134 -3 -223 -27.5t-89 -46.5q0 -31 90.5 -44.5t222.5 -12.5q103 0 182 3q0 -11 1 -22q0 -13 1 -27q5 -107 6.5 -197.5t1.5 -244.5v0q-3 -268 18 -450q6 -48 13 -85q-64 10 -145 11q-115 3 -192.5 -10t-82.5 -40 q1 -28 78 -52t195 -28q118 -2 195 18.5t80 48.5q-3 23 -59 38q5 42 10 101q6 77 13 200.5t7 247.5v1q0 275 -47 455q-6 22 -12 42q42 7 46 20q2 31 -77 63q-22 46 -37 50z" glyph-name="bracketright" horiz-adv-x="704" unicode="]"/>
<glyph d="M322 1257q60 -3 104 -45.5t71 -104.5q75 -163 94.5 -269.5t5.5 -115.5q-34 -4 -114 159q-39 75 -93 169l-6 10q-18 35 -49 64q-43 -45 -75 -105q-52 -91 -93 -167q-56 -104 -93.5 -163t-56.5 -53q-17 11 12.5 135t118.5 308q26 56 67 108.5t107 69.5z" glyph-name="asciicircum" horiz-adv-x="651" unicode="^"/>
<glyph d="M28 247q30 -17 189 -6q18 1 37 2q93 5 151.5 6.5t126.5 3.5q73 1 215 5h0.5h2h2.5h1v0q307 4 522 23q213 23 215 52q-13 26 -220 41q-204 18 -529 15h-5q-1 0 -1 -1h-1v0q-331 -6 -538 -58q-196 -54 -168 -83z" glyph-name="underscore" horiz-adv-x="1530" unicode="_"/>
<glyph d="M461 1079h-69l-330 202q-31 20 -46.5 40t-15.5 42q0 31 20.5 51t53.5 20q20 0 40.5 -12t55.5 -47z" glyph-name="grave" horiz-adv-x="501" unicode="`"/>
<glyph d="M671 1012q32 -2 83.5 -63t75.5 -194q16 -138 5 -298v-4q-2 -31 -3 -58q-10 -105 3 -185q21 -101 66 -156q30 -40 24 -58q-1 -1 -17 -3.5t-42.5 2t-57.5 21.5t-61.5 53.5t-55.5 99.5q-40 117 -34 247q-70 -170 -268 -288q-76 -54 -211 -50q-100 20 -147 109 q-31 78 -25 182q13 106 51 192q96 227 254 340q97 69 188 81q112 10 154 -23q-7 39 5 51q5 3 13 2zM660 916q-6 0 -14 -1q-46 0 -123 -28q-62 -24 -127 -87q-112 -106 -183 -299q-26 -73 -33 -148v-5q-5 -39 9 -84q2 -5 7 -9t8 -4q15 -5 38 2t51 18l20 8q167 90 239 238 q76 151 112 250q6 16 12 30q-6 70 -16 119z" glyph-name="a" horiz-adv-x="971" unicode="a"/>
<glyph d="M383 1484q6 -1 9 -4q16 -18 -15 -103q-10 -30 -21 -67q-27 -104 -52 -246q-14 -80 -31 -162q-18 -101 -38 -185q62 96 159 204q55 64 140 123q49 38 136 51q69 5 130 -43q53 -53 67 -108q31 -113 18 -219q-3 -28 -8 -54q-27 -165 -96 -301q-72 -151 -191 -251 q-138 -106 -283 -89q-102 18 -157.5 56.5t-79.5 78.5t-31 63q-7 20 -11 16q9 6 45 -18q37 -25 98.5 -51.5t143.5 -24.5q86 0 177 82q80 79 137 209q53 119 74 257l6 46q11 85 -8 148q-12 32 -28.5 32.5t-53.5 -19.5q-62 -37 -118 -90q-196 -188 -298 -314q-79 -94 -104 -106 q-54 -68 -77 -57q-22 20 5 144q3 18 7 38q16 98 30 191q27 339 182 650q92 127 137 123z" glyph-name="b" horiz-adv-x="938" unicode="b"/>
<glyph d="M529 1031q36 0 71 -16q51 -31 67 -71q31 -70 31 -120.5t-13 -81t-22 -40.5q-4 -6 -3 -6q-6 0 -10.5 12t-8.5 31q-8 31 -23 71t-47 76q-6 7 -12 11.5t-10 3.5q-4 0 -14 -3q-2 0 -4 -1q-33 -10 -74 -54q-8 -8 -17 -16q-61 -65 -115 -155q-65 -105 -108 -220 q-27 -74 -31 -144v-3q-4 -68 15 -94q5 -15 30.5 -23t55.5 -13q205 -6 318 33q38 12 65 22q51 21 62 11q8 -9 -12 -40t-76 -71q-117 -88 -357 -106q-108 -15 -216 86q-71 103 -58 208q6 97 38 191q52 146 132 255q67 100 151 174q68 67 171 90q12 2 24 3z" glyph-name="c" horiz-adv-x="780" unicode="c"/>
<glyph d="M1023 1456h5q34 -18 -3 -239q-23 -129 -53 -265q-32 -144 -57 -289q-56 -315 -59 -524q-1 -42 -2 -78q2 -138 -22 -149q-44 -4 -98 216q-17 83 -21 182q-18 -20 -39 -42q-123 -129 -344 -143q-160 -13 -282 140q-48 86 -29 203q35 125 105 202q128 159 287 208 q88 24 153 21.5t107 -18.5t63 -32t20 -18q-5 -12 -58 -15q-91 2 -238 -60q-108 -52 -202 -185q-51 -70 -67 -140q-8 -44 6 -71q0 -2 1 -5q13 -26 52.5 -40t84.5 -19q144 0 247 80q99 78 140 164q9 81 25 169q71 336 160 542q79 193 118 205z" glyph-name="d" horiz-adv-x="1102" unicode="d"/>
<glyph d="M554 1043q28 1 70 -12q69 -42 72 -99q1 -68 -15 -97q-65 -142 -143 -225q-152 -195 -296 -246q-28 -9 -50 -14v-1q1 -4 2 -9q6 -34 29.5 -64.5t52.5 -55.5q25 -22 59.5 -30.5t65.5 -7.5q69 5 116 14q56 12 64 1q4 -9 -32 -46t-127 -71q-94 -38 -225 23q-103 51 -163 190 q-34 116 2 231q65 202 231 351q12 12 24 22q70 64 158 111q32 18 78 30q11 4 27 5zM464 792q-23 -18 -46 -38q-10 -9 -20 -19q-138 -127 -190 -266q-4 -12 -7 -23v-2q51 42 97 101t111 157l14 22q21 33 41 68z" glyph-name="e" horiz-adv-x="737" unicode="e"/>
<glyph d="M587 1006q58 -3 107 -33q101 -83 93 -184q-11 -157 -60 -244t-82 -119q-20 -20 -14 -22q-10 5 6 65q14 52 26 134t0 181q-4 24 -14.5 43.5t-25.5 23.5q-28 12 -61 1q-89 -31 -164 -113q-76 -84 -131 -203q-33 -69 -60 -145q-15 -41 -28 -84q34 3 69 1h2h16q50 1 85 3 t70 7l22 4q24 4 43 5t31 -8q14 -12 7.5 -41t-43.5 -65q-79 -79 -233 -81h-2h-1q-53 0 -112 6q-22 -92 -40 -178q-39 -193 -67 -356q-21 -119 -39 -215q-24 -123 -50 -198q-14 -39 -29 -62q-11 -19 -22 -24t-14 0v1q-1 3 -2.5 14t0.5 22q0 13 1 30v32q1 3 1.5 27.5t1 58.5 t1.5 65t2 47q4 233 53 587q13 86 33 179h-1v1q-14 20 14 56q26 112 66 226q30 83 68 161q65 136 168 243q105 106 240 143q35 9 69 8z" glyph-name="f" horiz-adv-x="865" unicode="f"/>
<glyph d="M668 923q99 -5 150 -26t51 -28v0q13 -7 -4 -108q12 -103 4 -354q-3 -226 -48 -530q-11 -76 -41 -150q-107 -252 -346 -330q-174 -29 -299 31t-187 128q-66 70 -87.5 117t-11.5 56q17 11 98 -44q30 -19 70 -42q68 -44 169 -79.5t198 2.5q141 46 216 234q22 55 35 111 q32 173 55 327q10 63 19 121q-11 -21 -24 -42q-70 -142 -241 -264q-101 -73 -255 -24q-89 51 -127 131q-12 27 -19 54q-58 313 129 506q135 136 282 173q125 34 214 30zM846 855q-20 -5 -54 -11q-108 -10 -290 -85q-110 -47 -197 -152q-53 -69 -79.5 -160.5t0.5 -177.5 q5 -13 11 -26q16 -37 34 -43q8 -9 31 -3.5t50 16.5q57 30 106 84t91 110q142 196 217 327q52 88 80 121z" glyph-name="g" horiz-adv-x="1013" unicode="g"/>
<glyph d="M472 1469q2 0 4 -1q19 -16 -14 -139q-9 -39 -20 -87q-26 -130 -53 -318q-9 -57 -18 -119q25 34 56 65q64 73 182 108q96 23 190 -25q6 -3 11 -7q100 -71 143.5 -167t48.5 -182q20 -188 -10.5 -315.5t-71 -193t-49.5 -63.5q-17 9 -7 109q23 159 -23 436q-17 69 -45 135 t-76 91q-2 2 -5 3q-32 17 -69 10q-53 -12 -106 -59q-77 -67 -132.5 -151t-90.5 -151l-8 -14q-9 -16 -17 -30q-3 -4 -5 -9q-43 -141 -103 -249q-57 -99 -103.5 -143.5t-62.5 -34.5q-18 18 24 133q13 42 28 94q34 115 57.5 233.5t52.5 296.5v1t0.5 3t1 3.5t0.5 3v1.5 q47 333 144 545q99 189 146 187z" glyph-name="h" horiz-adv-x="1062" unicode="h"/>
<glyph d="M303 1389q15 0 25 -9q9 -9 16.5 -23t12.5 -28q2 -5 4 -9l2 -6q16 -28 22 -76q1 -4 1 -7q12 -75 -17 -136q-31 -56 -69 -44q-17 5 -30 20t-23 32q-24 34 -35 104q-1 4 -1 8q-11 89 38 145q29 31 54 29zM208 918q21 1 26 -5q7 -11 2 -29t-15 -44q-23 -49 -34 -119 q-10 -73 1 -180v-7q4 -39 8 -74q17 -121 9 -229q-18 -130 -59 -131q-33 9 -64 119q-16 47 -37.5 128.5t-31.5 170.5v3v5q-13 128 28 237q39 89 87 122.5t80 32.5z" glyph-name="i" horiz-adv-x="438" unicode="i"/>
<glyph d="M318 1299q15 -1 22 -7q17 -19 24 -60.5t9 -76.5q1 -8 1 -14v0v-1v-1v-0.5v-0.5q5 -56 -2 -108t-45 -67q-33 -8 -74.5 32t-53.5 130v2v4q-1 97 40.5 134t78.5 34zM305 889q2 0 4 -1q10 -6 11.5 -122t-5.5 -307q1 -205 -48 -471q-2 -12 -5 -25q-46 -246 -230 -389 q-119 -70 -225 -63q-95 5 -154.5 29t-86.5 48t-25 31q8 13 70 8q73 -7 189 10q76 11 141 61q105 92 150 306q2 11 5 22q32 158 53 327q9 67 17 120q29 191 67 303.5t72 112.5z" glyph-name="j" horiz-adv-x="419" unicode="j"/>
<glyph d="M330 1423q4 -1 6 -3q16 -15 -6 -106q-18 -79 -32 -210q-5 -85 -7 -188q-1 -80 -5 -169v-1q-2 -49 -5 -95q19 19 37 32q54 41 100 73q51 34 89 66q85 82 116 143q25 45 42 47q9 -1 20.5 -37.5t-1 -100.5t-76.5 -147q-64 -76 -138 -136q-21 -18 -43 -38q-4 -4 -9 -8 q-27 -25 -39 -44q-3 -8 -5 -9q2 -3 10 -11q7 -8 16 -20q50 -47 117 -88l6 -4q172 -116 249 -212.5t66 -116.5q-33 -26 -190 74q-87 52 -206 113q-79 35 -163 108q-23 18 -43 48q-1 -2 -1 -4l-2 -6q-34 -111 -81.5 -175t-87.5 -87t-52 -13q-12 16 17 89q32 78 58 219 q17 123 20 266q2 38 4 82v0q4 204 40 373q37 152 93.5 225.5t85.5 70.5z" glyph-name="k" horiz-adv-x="889" unicode="k"/>
<glyph d="M439 1469q-10 9 -64.5 -20t-125.5 -109.5t-132 -224.5q-81 -207 -100 -468v-1q-13 -160 -19 -299q-3 -89 -9 -168q-16 -181 -36 -294q-25 -133 -7 -147q29 -10 90 99.5t103 322.5q31 181 45 382q4 42 8 89v0q19 250 69 434q71 217 142 318q45 71 36 86z" glyph-name="l" horiz-adv-x="310" unicode="l"/>
<glyph d="M114 973q38 -2 49 -174q5 -108 -5 -264q-2 -23 -3 -51q-3 -36 -5 -75q24 62 52 128q49 129 149 261q39 52 111 93q70 36 154 20q69 -19 108 -73q37 -56 46 -107q13 -62 14 -120q2 -57 -2 -109l-2 -38q0 -1 -1 -1l20 42q17 36 36 73q48 109 130 207q84 98 223 88 q134 -42 166 -151q36 -127 32 -222q2 -53 3 -88q0 -35 1.5 -64.5t5.5 -64.5q19 -98 39 -134q12 -23 8 -29q-4 -5 -25 5t-47.5 43t-46.5 99q-26 86 -40 198q-2 12 -4 25q-2 10 -3 21q-10 88 -41 164q-13 24 -31.5 42.5t-38.5 16.5q-18 5 -41 -9.5t-46 -39.5q-52 -66 -94 -166 q-2 -5 -4 -9q-12 -26 -24 -55q-32 -76 -72 -156q-21 -43 -59 -90q-28 -39 -102 -64q-50 -5 -90 29q-29 36 -29 54q-12 54 -9 85q2 66 6 127q3 36 5 71v6q2 47 1 89q0 47 -9 87q-1 2 -1 3q-7 29 -15 39q-2 3 -4 4.5t-3 1.5q-8 3 -17.5 1.5t-19.5 -6.5q-27 -13 -58 -48 q-77 -95 -131 -219q-27 -55 -52 -112q-28 -65 -59 -128q-17 -40 -51 -87q-7 -14 -41 -36q-38 -20 -89 3q-58 69 -47 95q-4 54 2 97q13 132 33 238q1 5 2 9q11 62 18 102q7 39 12.5 72.5t12.5 79.5q7 70 8 109q2 57 11 61q2 1 4 1z" glyph-name="m" horiz-adv-x="1487" unicode="m"/>
<glyph d="M915 -6q-63 0 -134 62q-153 138 -232 548q-14 66 -16 68q-57 -105 -186 -407q-33 -89 -87 -166q-75 -99 -150 -99q-63 0 -89 36q-10 13 -14 41t-7 82q4 139 47 325l1 4q19 99 29 164q11 74 17 169q0 85 24 100l4 1q43 0 91 -120q26 -76 26 -172q0 -81 -19 -177l-1 -4 q-37 -176 -37 -213q0 -7 2 -7q8 0 45 130q46 163 133 360q31 100 118 172q21 21 62 21q25 0 56 -8q61 -41 66 -69q38 -91 45 -157q17 -94 28 -162q17 -117 50 -234q54 -188 154 -245q26 -17 26 -28q0 -2 -14 -8t-38 -7z" glyph-name="n" horiz-adv-x="1007" unicode="n"/>
<glyph d="M328 59q106 0 208 57q150 116 184 262q37 147 37 261q0 112 -35 194q-29 79 -59 113q-25 29 -36 29q-10 0 -10 -23q0 -17 6 -46q6 -37 11 -93q4 -32 4 -67q0 -133 -63 -317q-21 -52 -53 -98t-76.5 -71t-102.5 -25q-47 0 -101 16l-6 1q-65 24 -65 138q0 129 53 246 q65 156 154 226q48 39 91 47q29 5 52 5t41 -5q11 -2 19 -2q11 0 11 4l-3 12q-11 30 -54 52q-38 18 -87 18q-62 0 -131 -37q-138 -76 -231 -255q-86 -145 -86 -345q0 -77 43 -159q48 -79 138 -111l8 -3q70 -24 139 -24z" glyph-name="o" horiz-adv-x="797" unicode="o"/>
<glyph d="M118 -423q-22 0 -52 6q-44 38 -44 49l1 3q-8 22 -10 36q-13 82 -13 158q0 301 81 585q13 44 28 87q36 457 64 471q21 -7 35 -252q132 229 346 319q42 18 88 18q45 0 90 -18q86 -45 122 -113q70 -137 70 -265q0 -42 -7 -82q-36 -225 -182 -337q-108 -77 -189 -92 q-37 -6 -69 -6q-38 0 -81.5 13.5t-75.5 32.5q-11 7 -19 10q9 1 20 1q11 -1 24 -1q51 0 137.5 17.5t184 108.5t113.5 266q2 19 2 38q0 116 -59 213q-35 52 -72 52q-15 0 -34 -8q-222 -98 -340 -436q-25 -69 -49 -164q3 -85 3 -177q0 -104 -4 -216q-4 -161 -28 -246 q0 -10 -21 -43q-10 -28 -60 -28zM279 196q2 9 9 9q5 0 13 -5q-20 0 -22 -4z" glyph-name="p" horiz-adv-x="964" unicode="p"/>
<glyph d="M634 -500h-3q-49 0 -100.5 56t-67.5 147q-8 54 -8 111q0 126 38 264l14 59l12 44q-79 -68 -176 -68q-30 0 -62 6q-117 34 -189 131q-92 122 -92 269q0 98 44 182q91 149 215 201q153 67 263 67q69 0 103 -9.5t35 -13.5q-1 -16 -72 -38q-103 -29 -262 -126 q-89 -57 -135 -151q-20 -47 -20 -100q0 -94 60 -174l4 -5q43 -52 90 -66q11 -4 23 -4q31 0 56 18q56 35 105 163q66 189 85 307q14 105 35 105q54 -75 91 -206q29 -102 29 -187q0 -24 -2 -47q-24 -189 -77 -370q-15 -64 -27 -107q-42 -148 -42 -251q0 -104 57 -161 q10 -11 15 -18.5t5 -15.5q-1 -2 -12.5 -7t-31.5 -5z" glyph-name="q" horiz-adv-x="789" unicode="q"/>
<glyph d="M90 -35q-16 0 -35 6q-49 25 -49 88q0 28 11 59q31 115 95 255q65 145 148 272q-1 26 -2 51q-14 85 -39.5 134.5t-44.5 72.5q-15 19 -15 23l0.5 1.5t8.5 1.5q15 0 45.5 -9t65.5 -47t58 -121q14 18 29 35q100 126 242 189q57 22 116 22q16 0 26 -1q83 -10 141 -52 q195 -151 195 -322v-4q2 -21 5 -25q-8 5 -25 35q-24 44 -78.5 110t-151.5 118q-44 25 -93 26q-42 0 -87 -22q-96 -48 -183 -162q-60 -75 -111 -164q-3 -90 -39 -187l-4 -11q-52 -149 -144 -318q-19 -32 -49 -46q-17 -8 -36 -8z" glyph-name="r" horiz-adv-x="1134" unicode="r"/>
<glyph d="M244 1q-30 0 -72.5 7t-80 29.5t-57.5 47.5t-27 42t-7 19q0 4 14 4t38 -6q66 -17 128 -17q66 0 139 21q203 59 203 138q0 42 -31 104l-5 9q-31 60 -72 122q-12 21 -24 38q-104 152 -104 259q0 25 4 51q19 53 58 78q52 33 93 37q49 8 89 8q98 0 154 -25q48 -22 48 -30 q-4 -16 -74 -26q-75 -11 -184 -50q-39 -17 -39 -36q0 -15 14 -41q17 -39 70 -111l23 -34q52 -70 101 -160q47 -78 52 -188q-10 -124 -97 -190q-147 -91 -265 -93q-49 -7 -89 -7z" glyph-name="s" horiz-adv-x="772" unicode="s"/>
<glyph d="M266 -9q-79 0 -171 61q-79 77 -86 176q-2 30 -2 59q0 126 41 246q50 153 146 359h-6q-41 2 -76 2q-74 0 -139 -16q-25 -7 -41 -7q-23 0 -23 15q0 8 6 26.5t37 47t95 47.5q89 24 194 24h20q73 140 131 259q53 117 68 123q25 -1 25 -69q0 -108 -59 -283q-4 -14 -9 -27 l-2 -7l48 -1q50 1 91 4q28 2 49 2q52 0 52 -16q0 -19 -39 -54t-140 -57q-53 -11 -110 -14q-42 -108 -106 -286q-22 -61 -43 -126q-42 -115 -42 -211q0 -72 26 -98q11 -16 39 -23q49 -14 100 -14q72 0 119 24q73 36 112 73q28 26 40 26q6 0 6 -11q0 -7 -1.5 -26t-23 -60.5 t-74.5 -88.5q-85 -68 -218 -76q-17 -3 -34 -3z" glyph-name="t" horiz-adv-x="599" unicode="t"/>
<glyph d="M156 36q-113 36 -128 107q-28 89 -28 159l1 25q6 298 61.5 461.5t70.5 164.5q12 -5 12 -77q0 -32 -2 -78q-4 -61 -4 -137q0 -139 13 -327l1 -10q5 -67 24 -114q7 7 23 16q71 64 160 203q132 207 237 406l20 38q13 15 38 15q41 0 117 -43v-14q0 -22 -7 -53l-3 -23 q-7 -71 -42 -262q-28 -136 -28 -271l2 -54q0 -47 -14 -47q-22 0 -55 74.5t-33 235.5l1 41q-75 -130 -148 -228q-55 -80 -135 -149q-41 -52 -154 -59z" glyph-name="u" horiz-adv-x="812" unicode="u"/>
<glyph d="M219 91q-37 0 -72 128q-73 215 -100 309q-47 162 -47 288q0 28 2 55q18 141 60 142q33 -10 63 -131l25 -81q30 -97 66 -225q41 -140 51 -253q74 141 178 294q119 167 251 233q67 31 111 31q40 0 40 -20q0 -27 -51 -78q-51 -55 -135 -170q-34 -47 -74 -100 q-87 -127 -221 -262q-61 -53 -101 -65q-17 -95 -46 -95z" glyph-name="v" horiz-adv-x="887" unicode="v"/>
<glyph d="M119 109q-20 0 -47 6q-56 40 -56 65v3q-16 73 -16 129q0 26 3 48q39 572 74 596q28 -15 54 -490l7 -118q22 45 45 95l23 49q126 295 231 412q20 23 64 46q21 11 48 11q24 0 51 -7q69 -28 106 -87q35 -62 42 -117q12 -89 12 -166q0 -35 -2 -67v-8q-2 -48 -2 -90 q0 -53 9 -96l3 -10q2 -9 7 -17t23 -8q33 0 87 63q55 81 106 210q162 396 311 396q11 0 11 -5q0 -9 -21 -32q-40 -38 -98 -152q-34 -81 -62 -178l-23 -73q-28 -112 -102 -248q-58 -112 -218 -138h-9q-59 0 -116 46q-48 52 -59 104q-20 98 -20 185l2 119q0 71 -11 133 q-11 48 -22 48q-13 0 -33 -38q-11 -19 -26 -41q-64 -110 -122 -231q-79 -158 -122 -229q-18 -45 -83 -101q-14 -17 -49 -17z" glyph-name="w" horiz-adv-x="1353" unicode="w"/>
<glyph d="M20 -26q-13 4 -19 53q-1 11 -1 24q0 135 100 294q56 84 133 159q-94 187 -94 341q0 74 14.5 119.5t33.5 45.5q26 -6 54 -104q43 -146 125 -288q84 67 158 124q126 95 219 180q67 67 92 67q14 0 14 -25q0 -15 -9.5 -53t-60.5 -119q-106 -159 -314 -320q130 -156 245 -246 l33 -27q93 -69 93 -99q0 -18 -38 -18q-48 0 -152 37q-155 59 -315 240q-58 -52 -106 -107q-94 -114 -139 -198q-43 -80 -66 -80z" glyph-name="x" horiz-adv-x="889" unicode="x"/>
<glyph d="M870 975q134 -63 119.5 -363t-135 -628.5t-303.5 -476.5q-119 -101 -287 -130q-196 -8 -293 86q-119 113 -139.5 197.5t-11.5 118.5q2 17 -1 16q10 1 34 -39q23 -39 72.5 -98t138.5 -116q35 -21 80 -32.5t87 -0.5q90 21 184 107q155 149 237.5 341.5t103.5 347.5 q-81 -97 -169 -152t-228 -58q-130 3 -226 70q-103 88 -115 184q-22 234 102.5 365.5t225.5 183.5q30 19 44 30q-11 -22 -45 -63q-69 -81 -135.5 -211t-23.5 -278q20 -62 70 -94q41 -25 102 -23q159 10 299 164q163 179 188 430q11 59 25 122z" glyph-name="y" horiz-adv-x="1046" unicode="y"/>
<glyph d="M188 -24q-99 0 -152 64q-36 44 -36 99q0 130 203 322q126 112 351 262q36 24 60 42l-67 1h-33q-274 0 -389 96q-35 31 -35 44l1 4q97 0 207 -8t223 -8h46q16 1 33 1q43 0 104.5 -8t101.5 -45q20 -18 20 -46t-20 -66q-45 -67 -226 -194q-118 -85 -225 -176l-32 -30 q-127 -127 -127 -171q0 -30 39 -30q72 0 230 76q128 50 241 53q69 -1 114 -16.5t70 -36.5t34.5 -37t9.5 -17q-3 -3 -10 -3q-11 0 -30 5q-33 12 -87 12q-40 0 -92 -7q-84 -17 -197 -76q-202 -106 -330 -106z" glyph-name="z" horiz-adv-x="974" unicode="z"/>
<glyph d="M352 1318q33 -2 50 -11.5t17 -15.5q0 -7 -10 -13.5t-26 -14.5q-30 -13 -64 -38q-25 -19 -41 -50q-21 -43 -25 -113q-2 -22 -5 -48v-0.5v-1v-1.5v-0.5v-0.5q-5 -112 -46 -213q-29 -61 -74 -93q-18 -13 -35 -21q17 -7 35 -21q45 -32 74 -93q42 -101 46 -213v-0.5v-1v-0.5 v-1.5v-0.5q3 -26 5 -48q4 -69 26 -113q15 -30 40 -49q34 -25 64 -38q16 -8 26 -14.5t10 -13.5q0 -6 -16 -15.5t-47 -12.5t-77 11q-52 17 -95 71q-62 98 -64 210v2v3q-4 38 -6 68q-2 63 -16 116q-12 42 -31 70q-22 32 -43 51q-20 19 -24 30v1v0v0v1v0v1q1 12 24 33 q21 20 43 51q19 28 30 70q14 53 17 116q2 30 6 69v2v2q2 112 64 210q43 55 95 71q43 13 73 11z" glyph-name="braceleft" horiz-adv-x="459" unicode="{"/>
<glyph d="M48 1416q-22 -8 -35 -213.5t-12 -514.5q2 -310 17.5 -519.5t36.5 -209.5q22 0 37 210t14 519q-2 310 -19 515t-39 213z" glyph-name="bar" horiz-adv-x="147" unicode="|"/>
<glyph d="M67 1292q-33 -2 -49.5 -11.5t-16.5 -15.5q0 -7 10 -13.5t26 -14.5q29 -13 63 -38q25 -19 41 -50q22 -43 25 -113q2 -22 5 -48v-0.5v-1t1 -0.5v-1.5v-0.5q4 -112 45 -213q30 -61 74 -93q18 -13 35 -21q-17 -7 -35 -21q-44 -32 -74 -93q-41 -101 -45 -213l-0.5 -0.5 t-0.5 -1v-1.5v-0.5v-0.5q-3 -26 -5 -48q-4 -69 -25 -112q-16 -31 -41 -50q-34 -25 -63 -38q-17 -8 -26.5 -14.5t-10.5 -13.5q1 -6 16.5 -15.5t46.5 -12.5t77 11q52 17 96 71q61 98 63 210v2t1 3q3 38 5 68q3 63 17 116q11 42 31 70q22 32 43 51q19 19 23 31v0v0v0v1v0v1 q0 12 -23 33q-21 20 -43 51q-19 28 -31 70q-14 53 -17 116q-2 30 -5 69q0 1 -1 2v2q-2 112 -63 210q-44 55 -96 71q-43 13 -73 11z" glyph-name="braceright" horiz-adv-x="459" unicode="}"/>
<glyph d="M492 1277q95 -3 143.5 -26t47.5 -33q-5 -15 -72 -23q-64 -8 -156 -35q-27 -9 -53.5 -23t-42.5 -34q-24 -30 -33 -83q-9 -59 -3 -135q1 -9 1 -19q5 -64 10 -118q1 -8 2 -17q18 1 38 1q90 4 168.5 -1.5t83.5 -39.5q-2 -25 -47 -35.5t-109.5 -12.5t-126.5 -1q4 -57 2 -121 q-15 -217 -87 -294q32 -3 68 -6q29 -3 61 -6q9 -1 17 -2q140 -8 226 11q22 5 40 9q25 7 42.5 9.5t25.5 -5.5q11 -11 -2.5 -41t-60.5 -66q-100 -78 -282 -70q-10 0 -19 1q-171 22 -270 61q-101 34 -104 65q5 35 119 43q37 2 74 1q1 3 2 7q4 18 9 43q18 85 7 237 q-6 58 -16 124q-58 -2 -94 6t-38 39q0 28 33.5 37t86.5 9q-8 58 -13 122q0 11 -1 21q-7 84 10 173q18 86 81 151q90 72 173 74q31 3 59 3z" glyph-name="sterling" horiz-adv-x="789" unicode="£"/>
<glyph d="M228 560q41 -40 99 -57q29 -8 58 -8t58 8q58 17 99 57q40 41 57 99q9 29 9 58t-9 58q-17 58 -57 99q-41 40 -100 57q-29 8 -58 8t-58 -9q-58 -17 -98 -56q-39 -40 -56 -98q-10 -30 -10 -60q0 -28 9 -56q16 -59 57 -100zM118 903l-118 118l80 81l118 -118q44 30 99 46 q44 14 89 14q41 0 83 -12q57 -17 102 -48l118 118l80 -81l-117 -117q31 -46 48 -102q12 -42 12 -85q0 -42 -12 -85q-17 -56 -48 -102l117 -117l-80 -81l-118 118q-45 -32 -101 -48q-42 -12 -85 -12q-42 0 -85 12q-57 16 -102 48l-118 -118l-80 81l118 117q-32 46 -48 103 q-12 42 -12 84q0 44 13 87q16 55 47 99z" glyph-name="currency" horiz-adv-x="809" unicode="¤"/>
<glyph d="M936 1260q2 0 4 -1q29 -25 -68 -192q-63 -101 -139 -191h166v-49h-206q-43 -52 -95 -116h301v-49h-340q-75 -99 -116 -195q-61 -150 -83 -252q-18 -99 -40 -99q-13 0 -35 107.5t27 290.5q23 75 64 148h-376v49h302q-23 16 -46 48q-25 32 -41 68h-215v49h194l-12 36l-4 10 q-8 21 -13 38q-14 43 -31 71q-9 20 -24.5 35t-32.5 28q-14 11 -24.5 21t-10.5 20q0 2 8.5 11t25 18t40.5 10.5t54.5 -10.5t67.5 -44q61 -65 86 -147l4 -12q15 -47 24 -84q7 -30 15 -53q14 -37 32 -62q12 -19 18 -34q20 30 44 59v1l3 3q69 85 154 172.5t143 144.5 q15 15 26 25q6 7 12 13q106 112 137 114z" glyph-name="yen" horiz-adv-x="1009" unicode="¥"/>
<glyph d="M0 371h160v-789h-160v789zM0 1578h160v-789h-160v789z" glyph-name="brokenbar" horiz-adv-x="200" unicode="¦"/>
<glyph d="M375 321q56 16 97 53q73 65 73 166q0 5 -1 10h-2q-1 14 -4 27q-22 61 -113 127q-59 29 -126 29q-78 0 -125 -44.5t-47 -117.5q0 -123 248 -250zM296 -346q113 6 185 69q72 64 72 165q0 125 -316 276q-123 64 -175.5 137t-52.5 177q0 148 89 237q67 65 170 82l-40 19 q-123 64 -175.5 137t-52.5 177q0 148 89 237q82 79 216 86q8 1 17 1h3q66 0 163 -16.5t97 -41.5v-194h-51q-5 81 -80 132q-70 47 -149 51h-15q-78 0 -125 -44.5t-47 -117.5q0 -132 287 -269q149 -67 204.5 -143.5t55.5 -187.5q0 -171 -101 -282q-47 -39 -99 -64 q108 -56 154 -118q55 -77 55 -187q0 -171 -101 -283q-124 -102 -277 -105v1q-6 -1 -13 -1h-3q-66 0 -163 16.5t-97 41.5v194h51q5 -81 80 -132q68 -45 145 -50z" glyph-name="section" horiz-adv-x="714" unicode="§"/>
<glyph d="M14 1289l71 72q13 12 25 12q11 0 27 -14l69 -73q10 -14 10 -25q0 -13 -12 -27l-69 -75q-17 -17 -25 -17q-14 0 -25 12l-76 86q-9 12 -9 23q0 13 14 26zM379 1289l71 72q13 12 25 12q11 0 27 -13l69 -74q10 -14 10 -25q0 -13 -12 -26l-69 -76q-17 -17 -25 -17 q-14 0 -25 12l-76 87q-9 11 -9 22q0 13 14 26z" glyph-name="dieresis" horiz-adv-x="621" unicode="¨"/>
<glyph d="M660 -13q-273 0 -466.5 193.5t-193.5 465.5q0 273 193.5 466t466.5 193q272 0 465.5 -193t193.5 -466q0 -272 -193.5 -465.5t-465.5 -193.5zM661 1163q-215 0 -366 -151t-151 -366q0 -214 151 -365t366 -151q214 0 365 151t151 365q0 215 -151 366t-365 151zM577 283 q-67 0 -135 63q-43 63 -43 127q0 77 28 160q38 105 96 184q48 72 109 125q48 49 123 65q8 2 17 2q26 0 51 -12q37 -22 48 -50q22 -51 22 -87t-9 -58q-14 -34 -20 -34q-3 0 -12 31q-15 67 -50 106q-11 11 -16 11q-3 0 -9 -2l-3 -1q-24 -8 -54 -39l-13 -12q-43 -46 -82 -111 q-99 -160 -101 -277q0 -38 12 -55q4 -11 22 -17q29 -10 76 -10q122 0 193 24l47 16q25 10 36 10q10 0 10 -7q0 -29 -66 -75q-84 -63 -257 -76z" glyph-name="copyright" horiz-adv-x="1359" unicode="©"/>
<glyph d="M0 479l342 303h14v-37l-205 -266l205 -266v-37h-14zM313 479l342 303h14v-37l-205 -266l205 -266v-37h-14z" glyph-name="guillemotleft" horiz-adv-x="709" unicode="«"/>
<glyph d="M0 767h840v-491l-1 -1h-98v392h-741v100z" glyph-name="logicalnot" horiz-adv-x="880" unicode="¬"/>
<glyph d="M659 1358q272 0 465.5 -193.5t193.5 -465.5q0 -273 -193.5 -466t-465.5 -193t-465.5 193t-193.5 466q0 272 193.5 465.5t465.5 193.5zM659 1215q-215 0 -365.5 -151t-150.5 -365q0 -215 150.5 -366t365.5 -151q214 0 365 151t151 366q0 214 -151 365t-365 151zM683 1111 q27 1 62 -4q57 -8 114.5 -44.5t91.5 -106.5q27 -60 8 -129q-3 -8 -7 -16q-32 -67 -87 -101q-93 -56 -181 -70q25 -14 53 -32q12 -8 25 -16v0q73 -43 130 -65q65 -25 68 -42q-1 -12 -35 -18.5t-89 3.5t-120 49v0q-86 58 -132 105l-1 1q-14 -144 -52 -240q-44 -103 -65 -98 q-12 8 2 84q2 14 5 30q11 89 23 221q-69 2 -107 10.5t-38 12.5q0 12 81 21q30 5 69 12q12 155 44 260q18 59 36 85q-12 -5 -22 -9q-24 -12 -39 -21q-14 -7 -21 -10q4 5 10 18q10 31 46.5 68.5t127.5 41.5zM499 983q-4 -5 -9 -1q3 -2 9 1zM681 1043q-40 0 -74 -11 q4 -24 -2 -95v-10q-3 -34 -5 -76q-4 -70 -11 -156q30 7 62 15q87 20 165 70q40 28 57 65q2 4 3 9q11 34 -3 69q-19 45 -59.5 73.5t-82.5 39.5q-26 7 -50 7z" glyph-name="registered" horiz-adv-x="1358" unicode="®"/>
<glyph d="M279 1372q-86 0 -147.5 -61t-61.5 -148t61 -147t148 -60t147 60t60 147t-60.5 148t-146.5 61zM279 1442q115 0 196 -81.5t81 -196.5q0 -114 -82 -196t-197 -82q-117 0 -197 81t-80 197t81.5 197t197.5 81z" glyph-name="degree" horiz-adv-x="596" unicode="°"/>
<glyph d="M567 1281q6 -1 11 -3q16 -9 17 -46.5t-5 -94.5q-5 -53 -8 -96t-5 -96h5q7 -1 14 -1h1q82 -9 148 -20q41 -6 77 -10q44 -4 83 -7q49 -3 81 -7t38 -13q14 -23 -34.5 -68t-164.5 -62q-117 -13 -246 3h-1q-2 1 -4 1h-4q-7 -161 -25.5 -268.5t-59.5 -107.5q-27 0 -61 109 t-37 283h-8h-12q-71 -3 -120 -14q-58 -15 -78 -1q-10 9 0 41.5t50.5 69.5t124.5 59q27 7 54 11q25 155 76.5 245.5t92.5 92.5zM521 296q220 -2 370 -28t150 -64t-149.5 -65t-371.5 -27q-222 2 -369 31.5t-151 69.5q7 38 154 61t367 22z" glyph-name="plusminus" horiz-adv-x="1081" unicode="±"/>
<glyph d="M291 1375q35 35 55.5 47t40.5 12q33 0 53.5 -20t20.5 -51q0 -22 -15.5 -42t-46.5 -40l-330 -203h-69z" glyph-name="acute" horiz-adv-x="501" unicode="´"/>
<glyph d="M146 1315q17 -7 9 -150q-10 -166 9 -449q1 -4 1 -9q5 -65 23 -111q7 7 22 16q51 46 101 117q27 39 54 79q128 200 228 393l20 36q34 39 150 -26q1 -30 -2 -36q-2 -17 -5 -29q-2 -13 -3 -23q-6 -58 -17.5 -126.5t-22.5 -126.5q-9 -42 -13 -69q-18 -149 -13 -222 q3 -61 -8 -67q-22 -10 -56 66.5t-34 231.5q0 20 1 40q-39 -69 -83 -136q-29 -43 -60 -85q-53 -77 -130 -144q-40 -49 -149 -57q-5 2 -10 3l-4 2l-6 -307q-8 -47 -38 -64.5t-60 -2.5t-38 67q0 155 -3 275q-9 265 11.5 460.5t125.5 453.5z" glyph-name="mu" horiz-adv-x="804" unicode="µ"/>
<glyph d="M836 1435v-70h-127v-1365h-82v1365h-166v-1365h-84v738q-174 8 -275.5 102.5t-101.5 245.5q0 157 107.5 253t285.5 96h443z" glyph-name="paragraph" horiz-adv-x="876" unicode="¶"/>
<glyph d="M0 -290q85 -52 152 -52q66 0 94.5 21.5t28.5 66.5t-49 64q-40 16 -102 16q-16 0 -34 -2l48 176h63l-37 -104q32 4 62 5q86 0 134 -40.5t48 -113.5q0 -76 -58.5 -120.5t-160.5 -44.5q-109 0 -189 32v96z" glyph-name="cedilla" horiz-adv-x="448" unicode="¸"/>
<glyph d="M14 176h-14v37l205 266l-205 266v37h14l342 -303zM327 176h-14v37l205 266l-205 266v37h14l342 -303z" glyph-name="guillemotright" horiz-adv-x="709" unicode="»"/>
<glyph d="M615 1374l234 -243l-53 -17l-334 190zM688 1075q50 1 100 -23q109 -79 137 -171q69 -164 93.5 -316t27.5 -254q6 -220 -20 -229q-27 4 -74 216q-4 18 -9 38q-8 38 -19 84q-119 -50 -328 -26q-166 30 -264 92q-69 -111 -123 -203q-156 -273 -194 -268q-15 11 35.5 165 t174.5 396q-20 27 -14 40q9 13 40 10q16 29 33 58q60 112 150 227q46 63 123 118q17 12 37 22q43 23 94 24zM700 920q-16 -1 -36 -9q-10 -5 -20 -12q-43 -32 -87 -84q-1 -2 -3 -3q-80 -99 -145 -203q-2 -4 -4 -7l-4 -6q96 -25 220 -46q142 -20 248 -22q14 -1 28 -1 q-39 148 -107 290q-5 8 -10 17q-17 29 -33 51.5t-34 29.5q-4 5 -13 5z" glyph-name="Agrave" unicode="À"/>
<glyph d="M778 1337l152 -73l-338 -183l-53 19zM687 1041q50 1 100 -23q110 -79 138 -171q69 -163 93.5 -315.5t26.5 -254.5q7 -220 -20 -228q-27 3 -74 215q-4 18 -9 38q-8 39 -19 84q-118 -49 -327 -25q-167 29 -265 92q-68 -112 -123 -203q-155 -273 -194 -269q-14 11 36.5 165 t173.5 396q-20 27 -13 40q8 13 40 11q15 28 32 58q60 111 151 227q45 62 122 117q18 12 37 22q44 23 94 24zM699 886q-16 -1 -35 -9q-11 -5 -21 -12q-43 -32 -87 -84q-1 -1 -2 -3q-81 -98 -146 -203q-2 -3 -4 -7l-4 -6q96 -25 220 -46q142 -20 248 -22q15 0 28 -1 q-38 148 -107 290q-5 9 -10 17q-16 30 -32 52.5t-35 29.5q-4 4 -13 4z" glyph-name="Aacute" unicode="Á"/>
<glyph d="M726 1257q95 -15 133 -69q52 -67 63.5 -108t-0.5 -43q-26 1 -83 68q-28 31 -67 70l-4 4q-13 15 -36 28q-35 -13 -64 -33q-44 -29 -79 -54q-96 -72 -127 -68q-12 6 16 49t105 104q22 19 56.5 35.5t86.5 16.5zM687 1047q51 1 100 -23q110 -79 138 -171q69 -164 93.5 -316 t26.5 -254q7 -220 -19 -229q-27 4 -74 216q-4 18 -9 38q-9 38 -19 84q-119 -50 -328 -26q-166 30 -264 92q-69 -111 -123 -203q-156 -273 -194 -268q-15 11 35.5 165t173.5 395q-20 28 -13 41q8 13 40 10l32 58q61 112 151 227q45 63 123 118q17 12 36 22q44 23 94 24z M699 892q-15 -1 -35 -9q-10 -5 -20 -12q-44 -32 -87 -84l-3 -3q-80 -99 -145 -203q-2 -4 -4 -7l-4 -6q96 -25 219 -46q142 -20 249 -22q14 -1 27 -1q-38 148 -107 290q-5 8 -9 16q-17 30 -33 52.5t-34 29.5q-5 5 -14 5z" glyph-name="Acircumflex" unicode="Â"/>
<glyph d="M549 1386q43 0 83 -10l8 -2h1q39 -9 71 -17q41 -11 74 -17q63 -6 102 1q33 6 42 -2q3 -3 -2 -16.5t-21.5 -30t-47 -28.5t-79.5 -12q-79 1 -160 22h-0.5t-2 0.5t-2.5 0.5t-2 0.5t-1.5 0.5h-0.5q-20 3 -36 6q-47 12 -76 4q-21 -5 -37 -20q-22 -21 -36 -41q-8 -12 -15 -19 t-13 -6q-5 1 -10.5 14t-4.5 36.5t16 56.5q17 36 65 62q42 17 85 17zM687 1092q50 1 100 -23q110 -79 138 -171q68 -164 93 -316t27 -254q7 -220 -20 -229q-27 3 -74 216q-4 18 -9 38q-8 38 -19 84q-118 -50 -327 -26q-167 30 -265 92q-68 -111 -123 -203 q-155 -273 -194 -268q-14 11 36.5 164.5t173.5 395.5q-20 28 -13 41q8 13 40 10q15 29 32 58q60 112 150 227q46 63 123 118q18 12 37 22q44 23 94 24zM699 937q-16 -1 -35 -9q-11 -5 -21 -12q-43 -32 -87 -84q-1 -2 -3 -3q-80 -99 -145 -203q-2 -4 -4 -7l-4 -6 q96 -25 220 -46q142 -20 248 -22q15 -1 28 -1q-38 148 -107 290l-10 16q-16 30 -32 52.5t-35 29.5q-4 5 -13 5z" glyph-name="Atilde" unicode="Ã"/>
<glyph d="M665 1386q17 1 31 -7q29 -17 30.5 -58.5t-27.5 -87.5q-30 -44 -68 -59t-66 3q-27 20 -25.5 60.5t28.5 82.5q43 61 97 66zM871 1371q17 1 31 -6q29 -18 30.5 -59.5t-27.5 -87.5q-30 -43 -68 -58.5t-66 2.5q-27 21 -25.5 61t28.5 82q43 61 97 66zM688 1109q50 0 100 -23 q109 -79 137 -171q69 -164 94 -316t27 -255q6 -219 -20 -228q-27 3 -74 216q-4 18 -9 38q-8 38 -19 83q-119 -49 -328 -25q-166 30 -264 92q-69 -111 -123 -203q-156 -273 -194 -268q-15 11 35.5 164.5t174.5 395.5q-20 28 -14 41q9 12 41 10q15 29 32 58q60 112 150 227 q46 63 123 118q17 12 37 22q43 23 94 24zM700 953q-16 0 -36 -9q-10 -4 -20 -11q-43 -32 -87 -84q-1 -2 -3 -4q-80 -98 -145 -202q-2 -4 -4 -7l-4 -6q96 -25 220 -46q142 -20 248 -22q14 -1 28 -1q-39 148 -107 290l-10 16q-16 30 -32.5 52.5t-34.5 29.5q-4 4 -13 4z" glyph-name="Adieresis" unicode="Ä"/>
<glyph d="M716 1292q51 0 87 -36.5t36 -87.5q0 -64 -55 -103q1 0 2 -1q1 0 2 -1q109 -79 137 -171q69 -163 94 -315.5t27 -254.5q7 -220 -20 -229q-27 4 -74 216q-4 18 -9 38q-8 39 -19 84q-118 -49 -328 -25q-166 29 -264 92q-68 -112 -123 -203q-155 -274 -194 -269 q-15 11 35.5 165t174.5 396q-20 27 -13 40q8 13 40 10q15 29 32 59q60 111 150 227q46 62 123 117q18 12 37 22q18 10 38 16q-40 37 -40 90q0 51 36.5 87.5t87.5 36.5zM716 1250q-34 0 -58 -24t-24 -58t24 -58t58 -24t58 24t24 58t-24 58t-58 24zM700 931q-16 -1 -35 -9 q-11 -5 -21 -12q-43 -32 -87 -84l-3 -3q-80 -99 -145 -203q-2 -3 -4 -7l-4 -6q96 -25 220 -46q142 -20 248 -22q14 0 28 -1q-39 148 -107 290q-5 9 -10 17q-16 30 -32 52.5t-35 29.5q-4 4 -13 4z" glyph-name="Aring" horiz-adv-x="1093" unicode="Å"/>
<glyph d="M787 1041q76 -67 122 -134q20 -27 32 -40.5t16 -4.5q2 8 3 28q0 35 12.5 86.5t61 97t155.5 62.5q23 30 33 27q8 -4 10 -19q73 14 156 27q205 35 324 37v0q68 0 77 -23q7 -34 -97.5 -86.5t-278.5 -82.5q-111 -17 -200 -14q-14 -65 -34 -150q-18 -78 -39 -170 q-10 -45 -20 -94q39 19 87 33q131 32 216 15t91 -46q1 -37 -77 -66.5t-190 -55.5q-57 -14 -108 -28q-25 -7 -46 -13q-6 -44 -8 -87q-1 -34 1 -66q2 -74 25 -120q20 -39 57 -54q30 -13 69 -12.5t77 5.5q119 20 194 41q86 25 96 12q6 -13 -57.5 -66.5t-204.5 -102.5 q-87 -36 -217 -12q-93 27 -147 116q-47 92 -49 185q-2 40 0 80q0 12 1 24q0 3 1 7q-2 6 -3 12q-2 9 -4 19q-119 -49 -328 -25q-166 30 -264 92q-69 -111 -123 -203q-156 -273 -195 -268q-14 11 36.5 164.5t173.5 395.5q-20 28 -13 41q8 12 40 10l32 58q61 112 151 227 q45 63 123 118q17 12 36 22q44 23 94 24t100 -23zM699 908q-15 0 -35 -8q-10 -5 -21 -12q-43 -32 -86 -84l-3 -3q-81 -99 -145 -203q-2 -4 -4 -7l-4 -6q96 -25 219 -46q142 -20 249 -22q14 -1 27 -1q-38 148 -107 290q-5 8 -9 16q-17 30 -33 52.5t-34 29.5q-5 4 -14 4z" glyph-name="AE" horiz-adv-x="1836" unicode="Æ"/>
<glyph d="M676 1068q98 -2 157 -67q47 -62 58 -112t3.5 -84.5t-16.5 -52.5q-6 -12 -5 -16q-6 6 -13 34q-8 34 -29 80t-68 84q-38 31 -102 13q-75 -25 -155 -102q-88 -81 -165 -194q-72 -104 -127 -221q-53 -117 -56 -230q-3 -91 38 -142q27 -34 75 -51t98 -24q129 -19 209 3 q103 33 149 74q29 23 36 18v-2q-1 -9 -11.5 -37.5t-42.5 -65.5t-97 -72q-106 -48 -247 -42q9 -30 11 -74q1 -27 -2 -50q49 -8 91 -49q8 -8 15 -18q42 -69 -4 -129q-35 -31 -68.5 -39t-55.5 -5q-46 6 -47 19q2 12 42 25q3 2 6 3q19 6 38.5 16t29.5 27q5 5 3.5 16.5t-8.5 21.5 q-3 5 -7 9q-27 25 -66 34q-68 12 -113 0q-31 -6 -37 1q-1 2 9 17t34 31t66 22q-3 21 -5 45q0 48 12 80q-113 7 -219 99q-90 106 -86 242q4 149 66 290q62 139 146 247q90 123 199 211q97 84 217 113q23 4 44 4zM908 728q1 -1 3 -1q-2 0 -3 1z" glyph-name="Ccedilla" horiz-adv-x="951" unicode="Ç"/>
<glyph d="M354 1500l234 -243l-54 -17l-334 190zM785 1208q68 0 78 -23q6 -34 -98.5 -86.5t-278.5 -82.5q-111 -17 -200 -14q-14 -65 -34 -150q-18 -78 -39 -170q-10 -45 -20 -94q39 19 87 33q131 32 216 15t91 -46q1 -37 -77 -66.5t-190 -55.5q-57 -14 -108 -28q-24 -7 -46 -13 q-6 -44 -8 -87q-1 -34 1 -66q2 -74 25 -120q20 -39 57 -54q30 -13 69 -12.5t77 5.5q119 20 194 41q86 25 96 12q6 -13 -57.5 -66.5t-204.5 -102.5q-86 -36 -217 -12q-93 27 -147 116q-47 92 -49 185q-2 40 0 80q16 212 74 372q57 179 114 292q-114 20 -114 51q0 42 186 75 q23 30 33 27q8 -4 10 -19q73 14 156 27q205 35 324 37z" glyph-name="Egrave" horiz-adv-x="909" unicode="È"/>
<glyph d="M601 1542l152 -73l-338 -183l-53 18zM784 1255q69 0 78 -22q6 -34 -98 -86.5t-278 -83.5q-111 -16 -201 -14q-14 -64 -34 -149q-18 -78 -39 -171q-9 -44 -19 -93q38 19 87 33q130 32 215.5 15t91.5 -47q0 -36 -78 -65.5t-190 -55.5q-57 -14 -108 -29q-24 -6 -46 -12 q-6 -44 -7 -87q-2 -34 0 -66q2 -74 25 -121q20 -39 57 -53q31 -13 70 -12.5t77 5.5q118 19 194 41q85 25 95 11q6 -12 -57.5 -65.5t-204.5 -102.5q-86 -37 -217 -13q-93 28 -147 117q-47 91 -48 185q-2 40 -1 80q16 212 74 372q58 179 114 292q-114 20 -114 51q0 42 187 75 q23 29 33 26q7 -3 9 -18q73 14 157 27q204 34 323 36z" glyph-name="Eacute" horiz-adv-x="908" unicode="É"/>
<glyph d="M573 1572q95 -16 133 -70q52 -66 63.5 -107.5t-0.5 -42.5q-26 1 -83 68q-28 31 -67 70q-2 2 -5 4q-13 15 -36 28q-35 -14 -63 -33q-44 -30 -80 -55q-95 -71 -126 -67q-12 5 16 48.5t105 104.5q22 19 56 35t87 17zM785 1287q68 0 77 -22q6 -34 -98 -86.5t-278 -83.5 q-111 -17 -201 -14q-14 -64 -34 -149q-18 -78 -38 -171q-10 -45 -20 -94q39 20 87 33q130 33 215.5 15.5t91.5 -46.5q0 -36 -78 -66t-189 -55q-58 -14 -109 -29q-24 -7 -46 -13q-5 -44 -7 -87q-1 -33 0 -66q3 -74 25 -120q20 -39 57 -54q31 -12 70 -11.5t77 5.5 q119 19 194 41q85 25 96 11q5 -13 -58.5 -66.5t-204.5 -102.5q-86 -36 -217 -12q-93 28 -147 116q-47 92 -48 186q-2 39 -1 79q16 213 74 373q58 178 114 291q-113 20 -113 52q0 42 186 74q23 30 33 27q7 -3 9 -18q73 13 157 27q205 34 324 36z" glyph-name="Ecircumflex" horiz-adv-x="908" unicode="Ê"/>
<glyph d="M469 1414q16 0 29 -7q28 -16 29 -54.5t-26 -81.5q-28 -41 -63.5 -55t-61.5 3q-25 19 -23.5 56.5t26.5 76.5q40 57 90 62zM661 1400q16 1 29 -6q27 -16 28.5 -55t-25.5 -82q-28 -41 -63.5 -55t-61.5 3q-25 19 -23.5 56.5t26.5 76.5q40 57 90 62zM732 1116q63 0 72 -21 q5 -32 -92 -80.5t-259 -77.5q-103 -15 -187 -13q-13 -60 -31 -139q-17 -73 -36 -159q-9 -42 -19 -87q36 18 81 31q122 30 201.5 14t84.5 -44q1 -33 -72 -61t-177 -52q-53 -13 -101 -26q-22 -7 -43 -12q-5 -41 -6 -81q-1 -31 0 -62q2 -69 23 -112q19 -36 53 -50 q29 -12 65.5 -11.5t71.5 5.5q111 18 181 38q79 23 89 11q5 -12 -54 -62t-190 -95q-81 -34 -203 -12q-86 26 -136 108q-45 86 -46 173q-2 37 0 74q15 198 69 347q53 167 106 272q-106 19 -106 48q0 39 174 69q21 28 30 25q7 -3 9 -17q68 13 146 25q191 32 302 34z" glyph-name="Edieresis" horiz-adv-x="849" unicode="Ë"/>
<glyph d="M139 1441l211 -219l-48 -16l-302 172zM349 1174q2 0 3 -1q16 -13 -8 -109q-7 -32 -15 -70q-32 -161 -43 -415v-2q-3 -65 -5 -121q-3 -171 -21 -312q-26 -175 -59 -178q-27 9 -41 181q-8 76 -14.5 194t-1.5 242v2q12 271 90 439q77 151 115 150z" glyph-name="Igrave" horiz-adv-x="408" unicode="Ì"/>
<glyph d="M329 1405l137 -66l-305 -165l-48 16zM209 1131q2 -1 3 -1q16 -14 -8 -110q-7 -31 -14 -69q-33 -161 -44 -415v-2q-3 -65 -5 -121q-3 -171 -21 -312q-26 -175 -59 -178q-27 9 -41 180q-8 77 -14 195t-2 242v2q12 271 91 439q76 151 114 150z" glyph-name="Iacute" horiz-adv-x="506" unicode="Í"/>
<glyph d="M207 1336q71 -11 100 -52q39 -50 47.5 -80.5t-0.5 -32.5q-20 1 -62 51q-21 24 -51 53l-3 3q-9 11 -27 21q-26 -10 -47 -25q-33 -22 -60 -41q-72 -53 -95 -50q-9 4 12 36.5t79 78.5q17 14 42.5 26t64.5 12zM217 1131q1 -1 3 -1q16 -14 -8 -110q-7 -31 -15 -69 q-32 -161 -43 -415v-2q-3 -65 -5 -121q-3 -171 -21 -312q-26 -175 -59 -178q-27 9 -41 180q-8 77 -14.5 195t-1.5 242v2q12 271 90 439q77 151 115 150z" glyph-name="Icircumflex" horiz-adv-x="403" unicode="Î"/>
<glyph d="M164 1392q12 1 21 -4q20 -12 21 -40t-19 -59q-20 -30 -46 -40t-44 2q-19 14 -18 41t19 56q30 41 66 44zM303 1382q12 1 21 -4q20 -12 21 -40t-19 -59q-20 -30 -45.5 -40t-44.5 2q-18 14 -17 41t19 56q29 41 65 44zM210 1145q2 0 3 -1q16 -13 -8 -109q-7 -31 -15 -70 q-32 -161 -43 -415v-2q-3 -65 -5 -120q-3 -172 -21 -312q-26 -175 -59 -179q-27 10 -41 181q-8 76 -14.5 194t-1.5 242v2q12 271 90 440q77 151 115 149z" glyph-name="Idieresis" horiz-adv-x="386" unicode="Ï"/>
<glyph d="M660 1352q171 9 372 -72q112 -45 191 -167q59 -111 41 -235q-10 -50 -27 -97q-108 -242 -294 -360q-200 -143 -367 -199t-270 -62q-32 -59 -62 -84.5t-43 -17.5q-16 15 1 102q-7 1 -7 2q-1 6 9 13q16 81 22 210q1 68 -1 147q-2 84 -1 180v5v5h-224v111h229q10 136 60 254 q57 117 122 158q-114 4 -119 23q0 29 199 69q69 13 169 15zM540 1239l-6 -8q-27 -30 -58.5 -78t-51.5 -116q-24 -91 -26 -204h317v-111h-320v-7t-1 -4v-1q2 -182 -21 -339q-12 -74 -32 -130q204 76 503 306q157 123 236 292q12 32 16 66q11 72 -18 128q-37 67 -115 108 q-104 56 -218 75.5t-205 22.5z" glyph-name="Eth" horiz-adv-x="1322" unicode="Ð"/>
<glyph d="M453 1344q10 -4 26 -26q14 -20 37 -42q17 -16 38 -21q30 -9 79 3q17 4 38 7h0.5t2 0.5l3 1t2.5 0.5h1q84 22 167 23q50 -1 81.5 -13t48.5 -29t22.5 -31t2.5 -18q-10 -8 -44 -2q-40 8 -106 1q-34 -6 -76 -17q-34 -9 -74 -18l-10 -2q-85 -25 -174 7q-50 27 -67 65 q-16 34 -17 58.5t5 38t11 14.5h3zM1171 1217q3 0 5 -2q16 -15 -9 -106q-23 -83 -40 -219q-10 -115 -10 -244q0 -38 -1 -82v-5q4 -294 -72 -488q-15 -37 -31 -65q24 -14 23 -25q0 -1 -13 -6.5t-37 -10.5q-53 -67 -74 -56q-13 9 -5 54q-101 2 -237 132q-118 133 -175 323 q0 2 -1 3q0 2 -1 4q-37 119 -62 222q-17 66 -34 124q-36 108 -70 176q-11 -38 -21 -83q-21 -102 -34 -220q-4 -32 -9 -69l-0.5 -1t-0.5 -2v-2.5v-2.5v-1q-23 -260 -110 -428q-44 -79 -83 -110.5t-54 -21.5q-15 16 8 91q9 36 19 82q15 80 25 195q10 98 26 214v3q1 3 1 5 q20 172 71 311q60 144 127 201t88 41q14 -18 -20 -102q84 -49 172 -225q57 -127 98 -266q12 -37 25 -79q0 1 0 0.5t0.5 -1.5t0.5 -2t0.5 -1.5t0.5 -1v-0.5q53 -174 127 -281q67 -89 139 -131q4 21 7 44q9 74 11 130t1 121q0 77 3 209v5q1 190 37 349q42 155 101 229t88 72z " glyph-name="Ntilde" horiz-adv-x="1232" unicode="Ñ"/>
<glyph d="M635 1336l244 -252l-56 -19l-348 198zM619 1021q53 -3 81 -13.5t28 -12.5q-1 -9 -46 -18q-47 -10 -126 -39t-172 -98q-63 -48 -117.5 -121t-69.5 -165q-38 -174 -2 -340q14 -42 37 -77.5t56 -50.5q31 -17 72 -19q43 -2 89 6q112 24 210 87q113 72 189 166q81 100 105 204 q23 121 -21 213q-40 86 -89.5 139t-83.5 79q-33 26 -31 34q-1 -2 13 -3q33 0 113.5 -36t168.5 -163q76 -115 58 -287q-22 -142 -116 -270q-86 -119 -219 -209q-114 -80 -265 -115q-64 -14 -135 -8q-68 6 -133 37q-142 89 -172 232q-41 229 14 409q34 129 109.5 216 t157.5 134q188 102 297 89z" glyph-name="Ograve" horiz-adv-x="1139" unicode="Ò"/>
<glyph d="M945 1417l165 -79l-366 -198l-57 20zM643 1064q55 -4 84.5 -14.5t29.5 -12.5q-2 -10 -48 -19q-50 -10 -131.5 -40.5t-179.5 -102.5q-64 -49 -120.5 -125t-73.5 -172q-38 -180 -1 -353q14 -44 38 -80.5t58 -52.5q32 -17 75 -19q45 -3 93 5q116 25 218 92q117 74 196 172 q84 104 109 211q24 126 -22 222q-41 89 -92.5 144t-87.5 83q-34 26 -31 35q-1 -2 13 -4q35 0 118 -37.5t174 -168.5q79 -119 62 -298q-24 -148 -121 -281q-90 -123 -228 -217q-118 -83 -276 -119q-66 -16 -140 -9q-70 6 -137 38q-148 93 -179 241q-43 239 14 426 q35 134 113.5 224.5t163.5 138.5q196 107 309 93z" glyph-name="Oacute" horiz-adv-x="1181" unicode="Ó"/>
<glyph d="M690 1399q96 -15 134 -70q53 -67 64.5 -109t-0.5 -44q-27 2 -84 69q-28 32 -68 72l-4 4q-13 14 -37 28q-35 -14 -64 -34q-44 -29 -80 -55q-97 -72 -128 -68q-13 5 15.5 49t106.5 106q23 19 57.5 35.5t87.5 16.5zM600 1114q52 -3 79.5 -12.5t27.5 -12.5q-2 -8 -45 -17 q-46 -10 -122.5 -38.5t-167.5 -94.5q-60 -47 -113 -118t-68 -160q-37 -169 -2 -331q13 -41 35.5 -75t54.5 -48q30 -17 70 -19q42 -2 87 5q109 24 204 86q109 69 183 161q79 97 102 197q23 118 -20 208q-39 83 -87 134.5t-81 77.5q-33 25 -30 32q-1 -2 12 -3q33 0 111 -35 t163 -158q74 -111 57 -278q-22 -139 -113 -263q-84 -115 -213 -203q-110 -78 -258 -111q-62 -15 -131 -9q-65 6 -128 36q-138 87 -167 226q-40 223 13 397q33 126 106.5 210.5t152.5 129.5q183 100 288 86z" glyph-name="Ocircumflex" horiz-adv-x="1107" unicode="Ô"/>
<glyph d="M471 1386q40 0 78 -10q5 -1 9 -2q37 -8 67 -16q39 -10 70 -15q60 -7 97 0q31 6 40 -2q2 -3 -2.5 -15.5t-20 -28t-44.5 -27t-75 -11.5q-75 1 -152 21h-0.5t-2 0.5t-2.5 0.5h-2t-1.5 0.5t0.5 0.5q-19 3 -34 6q-45 11 -73 3q-19 -4 -35 -19q-21 -20 -34 -39 q-8 -11 -14 -17.5t-12 -5.5q-4 1 -9.5 13t-4.5 34.5t15 53.5q16 34 61 59q40 16 81 16zM562 1078q49 -2 74.5 -11.5t25.5 -11.5q-1 -8 -42 -17q-43 -8 -114.5 -35t-156.5 -89q-57 -43 -106.5 -110t-63.5 -150q-34 -158 -1 -309q12 -39 33 -71t51 -45q28 -16 65 -18 q39 -2 81 5q102 22 191 80q102 65 171 151q74 91 96 185q21 110 -19 194q-36 78 -81 126t-76 72q-30 24 -28 31q-1 -2 12 -3q30 0 103 -33t153 -148q69 -104 53 -260q-20 -130 -106 -246q-78 -108 -199 -190q-103 -73 -241 -104q-58 -14 -123 -8q-61 6 -120 34 q-129 81 -157 210q-37 209 13 372q31 118 99.5 197t142.5 121q172 94 270 81z" glyph-name="Otilde" horiz-adv-x="1039" unicode="Õ"/>
<glyph d="M536 1408q16 1 30 -6q28 -17 29.5 -57t-26.5 -84q-29 -42 -65.5 -56.5t-63.5 2.5q-26 20 -24.5 58.5t27.5 78.5q41 59 93 64zM734 1394q16 1 30 -6q28 -17 29 -57t-27 -84q-28 -42 -65 -56.5t-63 2.5q-26 20 -24.5 58.5t26.5 78.5q42 59 94 64zM570 1066q49 -3 75 -12 t26 -12q-2 -8 -43 -16q-43 -9 -116 -36t-159 -91q-57 -43 -107.5 -111t-64.5 -153q-35 -160 -1 -313q12 -39 33.5 -71.5t51.5 -46.5q28 -15 66 -17q40 -2 83 5q103 22 193 81q104 66 174 153q75 92 97 187q22 112 -19 197q-37 80 -82.5 128.5t-77.5 72.5q-30 24 -28 31 q-1 -1 12 -3q30 1 104 -32.5t155 -150.5q70 -105 55 -264q-21 -132 -108 -249q-79 -110 -201 -193q-106 -74 -245 -106q-59 -14 -125 -8q-62 6 -122 34q-131 83 -159 214q-37 212 13 378q31 119 101 199t145 123q174 95 274 82z" glyph-name="Odieresis" horiz-adv-x="1052" unicode="Ö"/>
<glyph d="M248 861q21 10 84 -7.5t145 -89.5q72 -67 134 -156q78 53 141 107q80 77 117 131q34 47 48 46q9 -4 8.5 -38t-22.5 -89.5t-78 -121.5q-63 -70 -147 -132q50 -75 102 -137q75 -82 129 -120q47 -34 45 -48q-4 -10 -38 -8.5t-89 24.5t-120 80q-67 61 -124 141l-10 -6 q-73 -50 -136 -102q-77 -72 -113 -123q-32 -44 -45 -43q-9 3 -9 36t21 85.5t75 115.5q65 72 150 133l-12 18q-48 74 -99 137q-71 79 -121 115q-44 33 -42 46q1 3 6 6z" glyph-name="multiply" horiz-adv-x="1267" unicode="×"/>
<glyph d="M1236 1408l92 -87l-178 -192q40 -40 79 -99q85 -128 65 -319q-24 -159 -129 -301q-96 -133 -244 -232q-127 -90 -295 -128q-72 -17 -151 -10q-75 7 -147 41q-49 28 -86 66l-150 -162l-92 87l167 181q-20 42 -31 86q-45 256 16 456q38 144 122 241t175 148 q210 115 330 100q59 -4 90.5 -15t32.5 -14q-2 -10 -52 -20q-53 -11 -140.5 -43.5t-191.5 -109.5q-70 -53 -130.5 -134.5t-78.5 -183.5q-38 -185 -5 -363l699 755q-39 39 -67 61q-38 29 -34 38q-2 -2 14 -4q39 0 134 -44zM1083 1057l-719 -778q21 -24 47 -36q34 -19 80 -21 q48 -3 100 6q124 27 234 98q125 79 209 184q91 112 117 227q26 135 -23 237q-20 46 -45 83z" glyph-name="Oslash" horiz-adv-x="1368" unicode="Ø"/>
<glyph d="M396 1406l249 -258l-57 -19l-356 202zM154 1094q14 -2 18.5 -73t-1.5 -186q-2 -26 -4 -59q-9 -125 -10 -259q-3 -119 31 -227q30 -80 100 -121q73 -42 181 -45q29 -2 59 -3q79 4 144 30t93 75q47 79 61 178.5t16 187.5q1 6 1 12q0 15 1 30q5 184 12 295t25 111 q7 0 37.5 -114.5t50.5 -317.5q11 -92 2.5 -214t-69.5 -246q-133 -198 -374 -194q-34 -1 -70 1q-131 6 -253 71q-127 83 -166 213q-39 157 -22 283q21 196 55 327q28 117 54 180.5t28 64.5z" glyph-name="Ugrave" horiz-adv-x="1020" unicode="Ù"/>
<glyph d="M602 1346l162 -78l-360 -195l-56 20zM155 1094q14 -2 18.5 -73t-1.5 -186q-2 -26 -4 -59q-9 -125 -10 -259q-4 -119 31 -227q29 -80 99 -121q74 -42 182 -45q29 -2 59 -3q78 4 143.5 30t92.5 75q48 79 62 178.5t16 187.5q0 6 1 12q0 15 1 30q5 184 12 295t25 111 q7 0 37.5 -114.5t49.5 -317.5q12 -92 3.5 -214t-69.5 -246q-133 -198 -374 -194q-34 -1 -70 1q-132 6 -254 71q-126 83 -165 213q-40 157 -22 283q20 196 55 327q27 117 53.5 180.5t28.5 64.5z" glyph-name="Uacute" horiz-adv-x="1021" unicode="Ú"/>
<glyph d="M571 1366q101 -17 141 -74q56 -71 68 -115t0 -46q-29 1 -89 72q-30 34 -72 76l-4 4q-14 15 -39 29q-37 -14 -67 -35q-47 -31 -85 -58q-102 -76 -134 -72q-14 6 16 52t112 111q24 20 60.5 37.5t92.5 18.5zM154 1161q15 -1 19 -72t-2 -186q-1 -26 -3 -60q-10 -124 -11 -259 q-3 -119 31 -227q30 -79 100 -121q73 -41 181 -45q29 -1 59 -2q79 4 144 30t93 75q47 78 61 177.5t16 187.5q1 7 1 13q1 15 1 30q5 184 12 294.5t25 110.5q7 0 37.5 -114t50.5 -318q11 -91 2.5 -213t-69.5 -247q-132 -197 -374 -194q-34 0 -70 2q-131 5 -253 71 q-127 83 -165 213q-40 157 -23 283q21 195 55 327q28 117 54 180t28 64z" glyph-name="Ucircumflex" horiz-adv-x="1020" unicode="Û"/>
<glyph d="M488 1369q18 1 33 -7q31 -18 32.5 -62.5t-29.5 -93.5q-32 -47 -72.5 -63t-70.5 3q-28 22 -26.5 65t29.5 87q46 65 104 71zM707 1353q18 1 33 -7q31 -18 32.5 -62.5t-29.5 -93.5q-32 -46 -72.5 -62.5t-69.5 2.5q-29 22 -27.5 65t30.5 88q45 65 103 70zM155 1161 q14 -1 18 -72t-2 -186q-1 -26 -3 -60q-9 -124 -10 -259q-4 -119 31 -227q29 -79 99 -121q74 -41 181 -45l60 -2q78 4 143 30t93 75q48 78 62 177.5t16 187.5q0 7 1 13v30q6 184 13 294.5t25 110.5q7 0 37.5 -114t49.5 -318q12 -91 3.5 -213t-69.5 -247q-133 -197 -374 -194 q-34 0 -70 2q-132 5 -254 71q-126 83 -165 213q-40 157 -22 283q20 195 54 327q28 117 54 180t29 64z" glyph-name="Udieresis" horiz-adv-x="1021" unicode="Ü"/>
<glyph d="M603 1399l175 -84l-389 -210l-61 21zM1048 1289l4 -2q34 -29 -79 -226q-96 -150 -226 -300q-50 -60 -112 -136q-1 -2 -3 -4v0q-107 -134 -162 -262q-71 -176 -97 -295q-21 -116 -47 -116q-15 0 -41 126t31 340q34 109 100 215q-26 -14 -70 -4t-95 76q-59 83 -87 179 q-2 6 -4 13q-9 24 -16 43q-15 51 -35 84q-11 24 -29.5 41.5t-37.5 31.5q-17 13 -29 25t-13 24q0 2 10.5 12.5t30 21t47.5 12.5t63.5 -12t78.5 -52q72 -75 101 -172l4 -14q18 -56 29 -99q8 -35 17 -62q16 -43 38 -73q14 -21 21 -39q24 35 51 69q1 1 1 2l3 3q81 99 180 201.5 t168 169.5l30 30q7 7 15 14q124 132 160 135z" glyph-name="Yacute" horiz-adv-x="1126" unicode="Ý"/>
<glyph d="M500 1369q5 -1 8 -3q15 -18 -15 -99q-9 -29 -19 -64q-26 -99 -50 -234q-14 -77 -30 -155q-17 -96 -36 -177q59 92 151 195q53 62 134 118q47 36 130 48q66 5 124 -41q51 -51 64 -103q29 -107 17 -208q-3 -27 -8 -52q-26 -157 -91 -288q-69 -144 -182 -239 q-132 -101 -271 -84q-134 26 -187 83l-99 -535l-140 18l162 877q2 12 4 23q16 94 29 183q26 323 174 620q88 121 131 117zM775 836q-16 0 -51 -19q-59 -35 -112 -86q-187 -179 -285 -299q-14 -16 -26 -30l-48 -262q70 -43 182 -43q84 2 168 78q77 76 130 199q51 114 72 245 q3 22 5 44q10 81 -7 141q-12 31 -28 32z" glyph-name="Thorn" horiz-adv-x="1030" unicode="Þ"/>
<glyph d="M38 -380q6 2 12 44q0 1 1.5 10t3.5 22t3.5 24.5t2.5 16.5q8 51 15 96.5t20 121.5v0q36 237 118 590q53 261 173 531q40 85 92 134q15 10 28 15.5t17 0.5v-1h0.5h1h0.5l-0.5 0.5l-1.5 1.5v0q4 -9 -4 -36q-2 -9 -5 -21q-22 -72 -63 -147q-16 -29 -32 -59q-12 -21 -23 -42 l-18 -32q-64 -103 -110 -232v0q-25 -42 -4 -136v0q68 -94 136 -81q200 -1 322 -122v0q111 -122 107 -271q-17 -176 -141 -271q-131 -100 -249 -123t-182 -19q-42 0 -43 -6q1 9 11.5 6.5t31.5 -10.5q57 -30 182 -38.5t312 102.5q171 105 212 351q18 205 -131 382v0 q-171 177 -432 181q-3 4 -3.5 2.5t4 -7t15.5 -15.5v0q-1 -6 0.5 -4.5t4.5 9t4 20.5v0q29 83 84 173q16 29 33 60q4 6 7 11q25 44 50 92q45 83 75 179q23 55 11 142v0q-30 90 -110 117q-128 25 -205 -50q-90 -91 -127 -187q-127 -305 -164 -571q-65 -366 -73 -609v0 q-7 -139 0 -226q3 -47 9 -76q11 -46 22 -43z" glyph-name="germandbls" horiz-adv-x="1022" unicode="ß"/>
<glyph d="M383 1348l265 -275l-60 -20l-380 216zM681 988q33 -2 85.5 -64t77.5 -197q15 -140 4 -303v-4q-2 -32 -3 -59q-10 -106 3 -188q22 -102 67 -158q30 -41 25 -59q-1 -1 -17.5 -3.5t-43.5 2t-58.5 21.5t-62.5 54.5t-56 101.5q-41 119 -34 251q-72 -173 -273 -294 q-78 -54 -214 -50q-102 20 -150 111q-31 79 -25 185q14 108 51 195q98 230 259 345q98 70 190 83q115 10 157 -23q-7 39 6 51q4 3 12 2zM670 891q-6 -1 -14 -2q-47 1 -125 -28q-62 -24 -129 -88q-114 -108 -185 -304q-27 -74 -35 -150v-6q-4 -40 9 -85q3 -5 8 -9t8 -4 q16 -5 39 2t51 19q10 4 21 8q169 91 242 242q78 152 114 253q7 17 12 31q-6 71 -16 121z" glyph-name="agrave" horiz-adv-x="985" unicode="à"/>
<glyph d="M579 1301l163 -78l-362 -197l-57 20zM644 986q31 -2 80.5 -60.5t72.5 -186.5q15 -132 5 -286v-4q-2 -30 -3 -56q-10 -100 2 -177q21 -97 64 -150q29 -38 23 -55q-1 -2 -16.5 -4t-40.5 2t-55 20.5t-59.5 51.5t-53.5 96q-38 112 -32 237q-67 -163 -258 -277 q-73 -51 -202 -48q-96 19 -141 105q-30 75 -24 175q13 101 48 184q93 218 245 327q92 65 180 77q108 10 148 -21q-6 37 5 48q4 3 12 2zM634 894q-6 0 -14 -1q-44 0 -118 -27q-59 -23 -122 -84q-107 -102 -175 -287q-26 -70 -33 -142v-5q-4 -37 9 -80q2 -5 7 -9t8 -3 q14 -5 36 1.5t49 17.5q10 4 19 8q160 86 230 228q73 144 107 240q6 15 12 29q-6 67 -15 114z" glyph-name="aacute" horiz-adv-x="934" unicode="á"/>
<glyph d="M633 1309q115 -19 161 -84q64 -81 78 -131.5t0 -52.5q-33 1 -102 83q-34 38 -82 85q-2 3 -5 5q-16 18 -44 34q-42 -16 -77 -40q-53 -36 -97 -66q-116 -87 -153 -83q-15 7 19 60t128 127q27 23 68.5 42.5t105.5 20.5zM730 1040q35 -3 91.5 -69.5t83.5 -211.5 q16 -150 5 -324q-1 -3 -1 -5q-1 -34 -3 -63q-11 -114 3 -201q23 -110 72 -170q33 -44 27 -63q-1 -2 -19 -4.5t-46.5 2t-62.5 23.5t-67 59t-60 108q-44 128 -37 269q-77 -185 -293 -314q-83 -58 -229 -54q-109 21 -160 118q-34 85 -28 199q15 115 55 209q105 247 278 370 q105 75 204 89q123 11 168 -25q-7 42 6 55q5 4 13 3zM719 935q-7 -1 -15 -1q-51 0 -135 -30q-67 -27 -138 -96q-122 -115 -199 -325q-29 -80 -37 -162v-5q-4 -43 10 -91q3 -6 8 -10.5t9 -3.5q17 -6 41.5 1.5t55.5 19.5q10 5 22 9q181 98 260 260q83 163 122 272q7 17 13 32 q-7 77 -17 130z" glyph-name="acircumflex" horiz-adv-x="1054" unicode="â"/>
<glyph d="M378 1278q50 1 97 -12q6 -1 11 -2q45 -10 83 -20q47 -12 86 -19q74 -8 119 1q39 7 50 -3q3 -4 -3 -19.5t-25 -34.5t-55 -33.5t-92 -14.5q-93 2 -188 26l-0.5 0.5t-2.5 0.5t-3.5 0.5t-2.5 1t-1 -0.5q-23 4 -42 8q-55 14 -89 4q-25 -5 -44 -23q-25 -25 -41 -48 q-10 -14 -18 -22t-15 -7q-5 1 -12 16t-5.5 42.5t18.5 66.5q20 42 76 72q49 20 99 20zM702 993q33 -2 87.5 -66t79.5 -203q16 -144 5 -312v-4q-2 -33 -4 -61q-10 -109 3 -193q23 -105 70 -163q31 -42 25 -60q-1 -2 -18 -4.5t-44.5 2t-60 22.5t-64.5 56t-58 104 q-42 123 -35 259q-73 -178 -281 -302q-80 -56 -220 -52q-105 21 -154 114q-33 81 -26 191q14 110 53 200q100 238 266 356q101 72 196 84q118 11 161 -23q-7 40 6 53q4 3 13 2zM691 893q-7 -1 -15 -2q-48 1 -129 -28q-64 -26 -133 -92q-117 -111 -190 -313q-28 -76 -36 -154 v-6q-4 -41 10 -87q2 -6 7 -10.5t9 -3.5q16 -5 39.5 2t52.5 19q11 4 22 9q174 93 249 249q81 157 118 261q6 17 12 31q-6 74 -16 125z" glyph-name="atilde" horiz-adv-x="1014" unicode="ã"/>
<glyph d="M480 1321q20 1 37 -8q34 -20 35.5 -68.5t-32.5 -102.5q-35 -51 -79.5 -69t-77.5 3q-31 24 -29 71.5t33 95.5q50 71 113 78zM721 1303q19 2 36 -7q34 -21 36 -69.5t-32 -101.5q-36 -52 -80 -69.5t-77 3.5q-31 24 -29.5 71t32.5 96q50 71 114 77zM702 1012q34 -2 88 -66 t79 -204q16 -144 5 -311v-5q-2 -32 -3 -60q-10 -110 2 -193q23 -106 70 -163q31 -42 25 -61q-1 -2 -18 -4t-44.5 2t-60 22t-64.5 56.5t-58 104.5q-41 122 -35 258q-73 -178 -281 -302q-79 -55 -220 -51q-105 20 -154 113q-33 82 -26 191q14 111 53 201q101 237 266 355 q101 72 196 85q118 11 162 -24q-7 41 5 53q5 4 13 3zM691 911q-7 0 -15 -1q-48 0 -129 -29q-64 -25 -133 -91q-116 -111 -190 -313q-28 -77 -35 -155q-1 -3 -1 -5q-4 -41 10 -88q2 -5 7 -9.5t9 -3.5q16 -6 39.5 1.5t53.5 19.5q10 4 21 8q174 94 250 249q80 157 117 261 q7 17 12 32q-6 73 -16 124z" glyph-name="adieresis" horiz-adv-x="1014" unicode="ä"/>
<glyph d="M639 1318v0q46 0 78 -32.5t32 -77.5t-32 -77.5t-78 -32.5q-45 0 -77 32.5t-32 77.5t32 77.5t77 32.5zM702 1030q33 -2 87 -66t80 -203q16 -144 5 -311q0 -3 -1 -5q-1 -33 -3 -61q-10 -109 3 -193q23 -105 70 -163q31 -42 25 -60q-1 -2 -18 -4.5t-44.5 2t-60 22.5 t-64.5 56.5t-58 103.5q-42 123 -35 259q-74 -178 -281 -302q-80 -56 -220 -52q-105 21 -154 114q-33 82 -26 191q13 110 52 200q101 238 267 356q100 72 196 85q118 10 161 -24q-7 41 6 53q4 3 13 2zM691 930q-7 -1 -15 -2q-48 1 -129 -28q-64 -26 -133 -92 q-117 -111 -191 -312q-27 -77 -35 -155v-6q-4 -41 9 -87q3 -6 8 -10t9 -4q15 -5 39 2t53 19q11 4 22 9q174 93 249 249q81 157 118 261q6 17 12 31q-6 74 -16 125z" glyph-name="aring" horiz-adv-x="1014" unicode="å"/>
<glyph d="M1070 975q29 1 73 -13q72 -44 75 -104q1 -70 -16 -101q-68 -148 -149 -236q-159 -204 -310 -256q-29 -10 -52 -15v-1l2 -10q6 -35 30.5 -67t54.5 -58q27 -23 63 -32t68 -8q72 5 121 15q59 12 68 0q4 -9 -33.5 -47.5t-133.5 -74.5q-98 -39 -235 24q-80 42 -141 137 q-50 -66 -123 -113q-147 -83 -291 21q-58 56 -58 135q13 98 67 143q102 93 189 120t152 20q1 34 3 66q5 66 1 119q-6 45 -20 79t-39 44q-133 65 -237 17q-65 -30 -99 -75t-49 -79q-14 -28 -23 -34q3 4 -5 21q-11 23 -17 63.5t20 94.5t111 115q151 105 372 23 q130 -77 157 -219q47 59 103 110q12 12 25 23q73 67 166 116q33 19 81 31q11 5 29 6zM28 591q-1 -1 -3 -1q1 0 3 1zM975 712q-23 -19 -47 -40l-22 -20q-144 -132 -199 -278q-3 -12 -6 -23q-1 -2 -1 -3q53 44 101 105.5t117 164.5q7 11 14 23q22 35 43 71zM478 380 q-119 -39 -219 -163q-10 -15 -15.5 -27.5t-2.5 -18.5q0 -3 3 -6.5t7 -5.5q9 -13 36 -8t57 18q85 48 126 187q2 7 5 15q1 5 3 9z" glyph-name="ae" horiz-adv-x="1259" unicode="æ"/>
<glyph d="M553 940q37 1 74 -16q53 -33 70 -74q32 -73 32 -126t-13.5 -85t-22.5 -43q-4 -5 -3 -5q-6 0 -10.5 12t-9.5 33q-8 32 -24 73.5t-49 80.5q-7 7 -13 11.5t-10 3.5q-4 0 -15 -3q-2 -1 -4 -1q-35 -11 -78 -57q-8 -8 -18 -17q-63 -67 -120 -162q-67 -109 -113 -230 q-27 -77 -32 -151v-3q-4 -70 16 -97q5 -17 31.5 -25.5t58.5 -12.5q214 -6 333 34q40 12 68 23q53 22 65 12q8 -10 -13.5 -42.5t-79.5 -74.5q-103 -75 -297 -104q0 -2 1 -4q1 -7 1 -15q1 -20 -2 -37q36 -6 67 -36q6 -6 11 -13q31 -51 -3 -95q-25 -22 -50 -28t-41 -4 q-33 5 -34 14q1 9 30 19q3 1 5 2q14 4 28.5 11.5t21.5 19.5q3 4 2 12.5t-6 15.5q-2 3 -5 7q-20 18 -48 25q-50 8 -83 0q-23 -5 -27 0q-1 2 6 13t25 22.5t49 16.5q-3 15 -4 33v16h-2q-9 -1 -18 -1q-113 -16 -227 89q-73 108 -60 218q6 102 39 199q55 153 139 267 q70 105 158 182q71 71 179 95q12 2 25 2z" glyph-name="ccedilla" horiz-adv-x="814" unicode="ç"/>
<glyph d="M383 1366l273 -284l-63 -20l-390 222zM580 1025q29 2 73 -12q72 -44 75 -104q2 -71 -16 -101q-68 -149 -149 -236q-159 -204 -310 -256q-29 -11 -52 -16v0l2 -10q6 -35 30.5 -67.5t54.5 -57.5q27 -24 63 -32.5t69 -7.5q72 4 121 14q58 13 67 1q4 -9 -33.5 -48t-133.5 -74 q-98 -39 -235 24q-108 53 -170 199q-36 121 1 241q69 212 242 368q13 12 25 23q73 67 166 116q33 18 81 31q11 5 29 5zM485 762q-23 -18 -47 -39q-11 -10 -21 -20q-145 -133 -199 -279q-4 -11 -7 -23q-1 -1 -1 -2q53 43 101.5 105t116.5 164q7 12 15 24z" glyph-name="egrave" horiz-adv-x="770" unicode="è"/>
<glyph d="M728 1369l178 -86l-395 -214l-62 22zM580 1025q29 2 73 -12q72 -44 75 -104q1 -71 -16 -101q-68 -149 -149 -236q-159 -204 -310 -256q-29 -11 -52 -16v0l2 -10q6 -35 30.5 -67.5t54.5 -57.5q27 -24 63 -32.5t68 -7.5q73 4 121 14q59 13 68 1q4 -9 -33.5 -48t-133.5 -74 q-98 -39 -235 24q-108 53 -170 199q-36 121 1 241q69 212 242 368q12 12 25 23q73 67 166 116q33 18 81 31q11 5 29 5zM485 762q-23 -18 -47 -39l-22 -20q-144 -133 -199 -279q-3 -11 -6 -23q-1 -1 -1 -2q53 43 101 105t117 164l14 24q22 35 43 70z" glyph-name="eacute" horiz-adv-x="946" unicode="é"/>
<glyph d="M638 1262q110 -18 154 -81q61 -78 74.5 -126t-0.5 -51q-31 2 -97 80q-33 36 -79 82q-2 3 -4 5q-16 17 -42 32q-41 -15 -74 -38q-52 -34 -93 -64q-112 -83 -148 -79q-15 6 18 57t123 122q26 22 66 41t102 20zM580 1025q29 2 73 -12q72 -44 75 -104q1 -71 -16 -101 q-68 -149 -149 -236q-159 -204 -310 -256q-29 -11 -52 -16v0l2 -10q6 -35 30.5 -67.5t54.5 -57.5q27 -24 63 -32.5t68 -7.5q73 4 121 14q59 13 68 1q4 -9 -33.5 -48t-133.5 -74q-98 -39 -235 24q-108 53 -170 199q-36 121 1 241q69 212 242 368q13 12 25 23q73 67 166 116 q33 18 81 31q11 5 29 5zM485 762q-23 -18 -47 -39q-11 -10 -21 -20q-145 -133 -199 -279q-4 -11 -7 -23q-1 -1 -1 -2q53 43 101.5 105t116.5 164q7 12 15 24z" glyph-name="ecircumflex" horiz-adv-x="920" unicode="ê"/>
<glyph d="M510 1338q19 1 36 -8q34 -20 35.5 -68.5t-32.5 -102.5q-35 -51 -79.5 -69t-76.5 4q-31 23 -29.5 70.5t32.5 95.5q50 72 114 78zM750 1321q20 1 36 -8q34 -20 36 -68.5t-32 -102.5q-35 -51 -79.5 -69t-77.5 3q-31 24 -29.5 71.5t33.5 95.5q50 71 113 78zM580 1007 q29 1 73 -13q72 -44 75 -104q2 -70 -16 -100q-68 -149 -149 -237q-159 -203 -310 -256q-28 -10 -52 -15v-1l2 -10q6 -35 30.5 -67t54.5 -58q27 -23 63 -32t69 -7q72 4 121 14q58 12 67 1q4 -10 -33.5 -48.5t-132.5 -74.5q-99 -39 -236 24q-108 53 -170 200q-36 121 2 240 q68 212 241 369q13 11 25 22q73 67 166 117q33 18 81 30q12 5 29 6v0zM485 744q-23 -19 -47 -40q-11 -10 -21 -20q-145 -132 -199 -278q-4 -12 -7 -24q0 -1 -1 -2q53 44 101.5 105.5t116.5 164.5q7 11 15 23q21 35 42 71z" glyph-name="edieresis" horiz-adv-x="864" unicode="ë"/>
<glyph d="M147 1335l224 -232l-51 -17l-320 182zM332 1012q25 1 31 -7q8 -12 2.5 -34t-18.5 -53q-26 -59 -41 -144q-11 -88 2 -216v-4v-4q5 -48 10 -90q20 -145 10 -275q-21 -157 -71 -158q-40 11 -77 144q-19 56 -45 154t-37 206q0 2 -1 4v5q-15 154 34 286q47 106 104.5 146 t96.5 40z" glyph-name="igrave" horiz-adv-x="411" unicode="ì"/>
<glyph d="M272 1320l145 -70l-322 -175l-51 18zM251 1004q25 0 30 -7q9 -12 3 -34t-18 -53q-27 -59 -41 -144q-12 -88 1 -216v-4q1 -2 1 -4q4 -48 9 -90q21 -145 11 -275q-22 -157 -71 -158q-40 10 -78 144q-19 56 -45 154t-37 205v5q0 2 -1 5q-15 154 35 285q47 107 104.5 147 t96.5 40z" glyph-name="iacute" horiz-adv-x="457" unicode="í"/>
<glyph d="M257 1264q88 -15 123 -65q49 -62 59.5 -100.5t-0.5 -39.5q-24 1 -77 63q-26 29 -63 66l-3 3q-13 14 -34 26q-33 -12 -59 -31q-41 -27 -74 -50q-89 -67 -118 -63q-11 5 15 45.5t98 96.5q21 18 52.5 33t80.5 16zM271 970q25 1 30 -6q9 -12 3 -34.5t-18 -52.5 q-27 -59 -41 -144q-12 -88 1 -217q1 -3 1 -6v-1q5 -48 9 -90q21 -145 11 -276q-21 -156 -71 -157q-40 10 -78 143q-19 56 -44.5 154t-37.5 206v4v6q-16 153 34 285q47 107 104.5 147t96.5 39z" glyph-name="icircumflex" horiz-adv-x="490" unicode="î"/>
<glyph d="M135 1351q16 1 30 -6q29 -18 30.5 -59t-27.5 -86q-30 -44 -67.5 -59t-64.5 3q-27 20 -25.5 60t27.5 82q43 60 97 65zM338 1336q17 1 31 -6q29 -17 30.5 -58t-27.5 -87q-30 -43 -67.5 -58t-65.5 3q-26 20 -25 60t28 81q42 60 96 65zM250 1029q25 0 31 -7q8 -12 2.5 -34 t-18.5 -53q-26 -59 -40 -144q-12 -88 1 -216v-5v-3q5 -48 10 -90q20 -145 10 -275q-21 -157 -71 -158q-40 10 -77 143q-19 57 -45 155t-37 205q0 2 -1 4v6q-15 154 34 285q47 107 104.5 147t96.5 40z" glyph-name="idieresis" horiz-adv-x="441" unicode="ï"/>
<glyph d="M34 1413q58 7 386 -281l217 145l31 -47l-206 -138q120 -119 250 -284q155 -163 229 -447q17 -79 -16 -177q-8 -18 -17 -35q-34 -57 -89 -90q-165 -78 -298 -41q-166 29 -294 113q-134 77 -199 225q-28 75 -12 152q27 93 82 142q122 111 221 138t157 19q-76 107 -146 197 l-232 -156l-31 46l228 154q-64 83 -117 148q-160 189 -147 216q1 1 3 1zM498 777q-9 -5 -20 -11q-53 -25 -128 -75t-141 -140q-28 -38 -31 -73q-2 -26 12 -55q35 -68 138 -125q101 -58 224 -76h3q49 -4 90 -2.5t63 19.5q12 7 18 18q2 3 3 6q9 21 4 66q-37 173 -160 338 l-18 28q-29 42 -57 82z" glyph-name="eth" horiz-adv-x="998" unicode="ð"/>
<glyph d="M472 1341q43 0 84 -10l10 -2q39 -9 72 -18q41 -10 75 -16q64 -7 104 0q33 6 43 -2q3 -3 -2.5 -17t-22 -30.5t-47.5 -28.5t-80 -12q-81 1 -164 22h-1t-2 1q-2 0 -3 0.5t-2 0.5h-1q-20 3 -36 7q-48 12 -78 3q-21 -5 -38 -20q-22 -22 -36 -42q-8 -12 -15 -19t-13 -6 q-5 1 -11 14t-5 37t17 57q17 38 66 64q42 17 86 17zM147 1068q50 5 109 -145q58 -170 9 -420q-1 -2 -1 -4v-1q-30 -143 -39.5 -204.5t-3.5 -61t21 45t33 112.5q56 196 161 434q13 41 45 97t97 110q10 10 25 16q44 19 117 -1q73 -49 79 -83q46 -109 54 -189q21 -113 34 -195 q20 -141 60 -282q35 -122 82 -192q57 -75 103 -103q32 -20 32 -33q0 -3 -16.5 -10t-46.5 -8t-71 15t-90 59q-87 78 -147 214q-85 201 -132 446q-5 23 -11 47q-4 17 -7 32q-1 2 -1 3q-9 -16 -19 -34q-78 -159 -146 -319q-20 -46 -37 -85q-12 -27 -22 -52q-41 -107 -105 -200 q-56 -74 -105 -98.5t-86 -21t-58 13.5q-26 13 -38.5 29.5t-17.5 50t-8 99.5q5 167 57 391v0v1v1.5v1v0.5q23 120 35 198t18 159q1 23 3 44q0 103 28 121q3 1 6 1z" glyph-name="ntilde" horiz-adv-x="1204" unicode="ñ"/>
<glyph d="M406 1403l246 -256l-56 -18l-352 200zM510 1046q10 0 20 -1q48 -5 77 -19.5t43.5 -31t19 -28.5t3.5 -14q-7 -6 -35 0q-40 11 -105 0q-48 -10 -103 -54q-101 -80 -175 -256q-65 -145 -60 -304q4 -58 25 -93q18 -27 49 -38v0l6 -2q139 -42 232 11q50 28 86 80.5t61 110.5 q90 264 66 436q-6 63 -13 105q-13 68 1 77q12 6 45 -32.5t67 -127.5q80 -189 -2 -516q-40 -166 -209 -297q-191 -105 -394 -37q-4 1 -9 3q-101 36 -156 126q-50 96 -49 184q4 229 98 388q105 202 261 289q79 41 150 41z" glyph-name="ograve" horiz-adv-x="940" unicode="ò"/>
<glyph d="M746 1357l159 -77l-352 -190l-55 19zM498 1012q10 0 19 -1q47 -5 75.5 -19t42.5 -30t18.5 -28t3.5 -13q-7 -7 -34 -1q-39 11 -103 0q-47 -9 -101 -52q-98 -78 -170 -250q-64 -141 -59 -296q5 -57 25 -91q17 -27 48 -38v0q3 -1 6 -1q135 -41 226 10q48 27 83.5 78.5 t59.5 107.5q88 258 65 426q-6 61 -13 103q-12 66 1 75q12 6 44 -32t65 -125q79 -184 -2 -503q-38 -162 -204 -290q-186 -102 -384 -36q-4 1 -8 3q-100 35 -152 123q-50 93 -49 179q4 224 95 379q103 198 256 282q76 40 146 40z" glyph-name="oacute" horiz-adv-x="945" unicode="ó"/>
<glyph d="M552 1326q103 -17 144 -76q57 -72 69.5 -117t-0.5 -47q-29 1 -91 74q-30 34 -73 77l-4 4q-15 16 -40 30q-38 -14 -68 -36q-49 -32 -87 -59q-104 -78 -138 -73q-13 5 17.5 52.5t114.5 113.5q24 21 61 38.5t95 18.5zM498 1012q9 0 19 -1q47 -5 75 -19t42 -30t18.5 -28 t3.5 -13q-6 -7 -34 -1q-39 11 -102 0q-47 -9 -101 -52q-98 -78 -171 -250q-63 -141 -58 -296q4 -57 25 -91q17 -27 47 -38h1q3 -1 5 -1q136 -41 226 10q49 27 84 78.5t59 107.5q89 258 65 426q-5 61 -12 103q-13 66 1 75q12 6 44 -32t65 -125q78 -184 -3 -503 q-38 -162 -203 -290q-186 -102 -385 -36q-4 1 -8 3q-99 35 -152 123q-49 93 -48 179q3 224 95 379q103 198 255 282q77 40 147 40z" glyph-name="ocircumflex" horiz-adv-x="918" unicode="ô"/>
<glyph d="M514 1382q43 0 83 -10q5 -1 9 -2q38 -9 71 -17q40 -11 73 -16q63 -7 101 0q33 6 42 -2q3 -3 -2 -16.5t-21.5 -29.5t-47 -28t-78.5 -12q-78 1 -159 22h-0.5h-2t-2.5 1h-2t-1.5 0.5t-0.5 -0.5q-19 4 -36 7q-47 12 -75 3q-21 -4 -37 -20q-22 -21 -36 -40q-8 -12 -14.5 -19 t-12.5 -6q-5 1 -10.5 14t-4.5 36.5t16 55.5q16 36 64 62q42 17 84 17zM549 1102q10 0 21 -1q51 -5 82.5 -20.5t47 -33t20.5 -31t4 -14.5q-8 -7 -38 -1q-43 12 -113 0q-52 -10 -111 -57q-109 -87 -188 -276q-70 -156 -65 -327q5 -62 28 -100q19 -29 52 -41q3 -1 5 -1 q1 -1 2 -1q149 -45 249 12q53 29 92 85.5t66 119.5q97 284 71 469q-6 68 -13 113q-14 73 0 83q14 7 49.5 -34.5t71.5 -137.5q86 -203 -3 -556q-42 -178 -225 -319q-205 -113 -423 -40q-5 2 -9 4q-110 39 -168 135q-54 103 -53 198q4 246 105 417q113 218 281 311 q84 45 162 44z" glyph-name="otilde" horiz-adv-x="1008" unicode="õ"/>
<glyph d="M564 1354q17 1 31 -7q29 -17 30.5 -59t-27.5 -88q-30 -44 -68.5 -59.5t-66.5 2.5q-27 21 -25.5 61.5t28.5 82.5q43 61 98 67zM771 1339q17 1 31 -7q30 -17 31 -59t-28 -88q-30 -44 -68.5 -59.5t-66.5 2.5q-27 21 -25.5 61.5t28.5 82.5q43 62 98 67zM488 1062q9 0 18 -1 q46 -5 74 -18.5t41.5 -29.5t18 -27.5t3.5 -12.5q-6 -7 -33 -1q-39 10 -101 0q-46 -9 -99 -51q-96 -77 -166 -245q-63 -138 -58 -290q4 -56 25 -89q16 -26 46 -37h1q2 -1 5 -1q133 -41 221 10q48 26 82.5 76t58.5 106q86 252 63 417q-5 60 -12 100q-13 65 1 74q11 6 42.5 -31 t63.5 -122q77 -180 -2 -493q-37 -159 -199 -284q-182 -100 -377 -35v0q-4 1 -8 3q-97 34 -149 120q-48 92 -47 176q3 219 93 370q101 194 250 276q75 40 144 40z" glyph-name="odieresis" horiz-adv-x="900" unicode="ö"/>
<glyph d="M512 978q32 0 59 -10t40 -25q26 -32 23 -77t-40 -76q-35 -28 -80.5 -26t-78.5 45q-37 56 -23 103.5t60 60.5q20 5 40 5zM335 603q96 1 209 -12q14 -2 29 -4q60 -6 102 -12q67 -9 140 -13q60 -2 110 0q94 5 115 -12q11 -14 -5 -47t-65 -68t-136 -55q-131 -28 -283 -12 q-15 1 -31 2q-78 9 -173 25t-155 27q-17 4 -28 6q-3 0 -5 1q-63 10 -103 21.5t-47 32.5q-9 52 147 99q83 20 179 21zM529 191q56 3 113 -56q45 -54 36.5 -105t-45.5 -76q-41 -25 -88 -10.5t-74 51.5q-15 23 -21.5 67t5.5 81q19 44 74 48z" glyph-name="divide" horiz-adv-x="1091" unicode="÷"/>
<glyph d="M793 1370l108 -47l-103 -239q40 -37 84 -151q87 -203 -3 -556q-42 -178 -224 -319q-156 -88 -329 -62l-108 -249l-108 47l101 232q-102 40 -157 131q-54 103 -53 198q4 246 105 417q113 218 282 311q96 51 182 43q70 -8 103 -32zM628 1032q-25 1 -55 -6q-52 -10 -111 -57 q-108 -87 -188 -276q-70 -156 -64 -327q4 -62 27 -100q19 -30 53 -41v0l6 -2v0l350 808h-3q-7 1 -15 1zM763 1005l-347 -801q76 -3 129 31q54 29 93 85.5t65 119.5q98 284 72 469q-5 56 -12 96z" glyph-name="oslash" horiz-adv-x="1009" unicode="ø"/>
<glyph d="M289 1391l282 -292l-64 -21l-403 229zM168 1092q23 -9 13 -188q-14 -211 11 -567q1 -6 1 -12q6 -82 29 -140q9 9 28 20q64 58 127 148q35 49 69 100q161 252 287 495q13 24 25 46q44 49 190 -33q1 -37 -3 -46q-3 -20 -5 -36q-3 -17 -5 -29q-7 -74 -22 -160t-29 -159 q-10 -54 -16 -87q-22 -188 -16 -281q3 -76 -10 -85q-28 -11 -71 85t-43 293q0 24 1 49q-49 -86 -105 -171q-36 -55 -75 -107q-67 -97 -165 -182q-50 -62 -187 -72q-139 44 -156 132q-41 127 -34 224q7 363 75 562.5t86 200.5z" glyph-name="ugrave" horiz-adv-x="989" unicode="ù"/>
<glyph d="M587 1389l184 -88l-408 -221l-64 23zM168 1055q23 -9 13 -189q-14 -210 11 -567q1 -6 1 -11q6 -83 29 -140q9 9 28 20q64 58 127 148q35 48 69 99q161 252 288 496q12 23 25 46q43 48 189 -34q1 -37 -3 -45q-2 -21 -5 -36q-3 -17 -5 -29q-7 -74 -22 -160.5t-29 -158.5 q-10 -54 -16 -88q-22 -188 -16 -280q3 -77 -10 -85q-28 -12 -71 84.5t-43 292.5q0 24 1 50q-49 -87 -105 -171q-36 -55 -75 -107q-67 -98 -165 -182q-50 -63 -187 -72q-139 43 -156 131q-41 127 -34 224q7 364 75 563.5t86 200.5z" glyph-name="uacute" horiz-adv-x="989" unicode="ú"/>
<glyph d="M568 1393q112 -19 156 -83q62 -78 75.5 -126.5t-0.5 -51.5q-31 2 -98 81q-33 36 -79 83q-3 2 -5 5q-16 17 -43 32q-41 -15 -75 -39q-52 -34 -94 -64q-113 -84 -149 -80q-15 7 18.5 58t124.5 123q26 22 66.5 41.5t102.5 20.5zM165 1036q22 -9 12 -185q-13 -206 11 -555 q0 -6 1 -12q6 -81 28 -137q9 9 28 20q63 57 124 145q34 47 67 97q158 247 282 486q13 23 25 45q42 47 186 -33q0 -36 -3 -45q-3 -20 -6 -35q-3 -16 -4 -28q-7 -73 -21.5 -157t-28.5 -156q-10 -53 -16 -85q-21 -185 -16 -275q4 -75 -9 -84q-28 -11 -70 83.5t-42 286.5 q0 24 1 49q-48 -85 -103 -168q-35 -54 -73 -105q-66 -95 -162 -178q-49 -61 -183 -71q-136 43 -153 129q-40 125 -34 220q8 356 74.5 551.5t84.5 196.5z" glyph-name="ucircumflex" horiz-adv-x="969" unicode="û"/>
<glyph d="M473 1389q21 2 39 -8q36 -21 37.5 -73t-34.5 -109q-37 -55 -84.5 -74t-82.5 4q-33 25 -31 75.5t35 102.5q53 76 121 82zM729 1371q21 1 39 -8q36 -22 38 -73.5t-35 -109.5q-37 -54 -84.5 -73t-81.5 3q-34 26 -32 76.5t35 101.5q54 76 121 83zM174 1077q23 -10 13 -195 q-14 -218 11 -585q1 -7 2 -13q6 -85 30 -144q9 9 29 20q66 60 130 153q37 50 71 103q167 260 298 512q13 24 25 47q45 50 196 -34q1 -39 -3 -47q-3 -21 -5 -38q-4 -17 -5 -29q-7 -77 -22.5 -166t-30.5 -164q-10 -56 -16 -90q-23 -194 -17 -290q4 -79 -10 -88q-30 -11 -74 88 t-44 302q0 25 1 51q-51 -89 -108 -176q-38 -57 -78 -111q-69 -100 -170 -188q-52 -64 -193 -74q-143 45 -162 136q-42 131 -35 231q8 375 78 581t89 208z" glyph-name="udieresis" horiz-adv-x="1020" unicode="ü"/>
<glyph d="M787 1358l190 -91l-421 -227l-66 23zM892 1070q29 -8 63 -13q63 -8 108 -33t30 -103q-22 -108 -49 -210q-84 -324 -206 -590q-141 -333 -359 -509q-121 -92 -243 -96q-83 1 -131 22.5t-70.5 48t-28.5 40.5q-5 9 -6 7q6 7 38 -4q30 -10 78.5 -17t108.5 7q79 17 162 99 q156 159 272 478l16 40l2 6q-57 -66 -131 -119q-71 -57 -187 -58q-129 25 -181 107q-88 140 -80.5 276t46.5 227q80 216 164.5 303t102.5 74q9 -10 -23 -78q-54 -101 -111 -335q-16 -87 -15.5 -190t57.5 -161l1 -1q17 -15 30.5 -25t21.5 -5q13 -3 45 19q6 5 13 9 q105 85 192 247q7 11 13 22q93 163 179 351q12 26 21 46t21 46q8 16 15 32q8 16 21 40z" glyph-name="yacute" horiz-adv-x="1148" unicode="ý"/>
<glyph d="M409 1333q5 -1 8 -3q14 -17 -14 -96q-9 -28 -19 -62q-25 -96 -49 -227q-13 -74 -28 -150q-17 -93 -36 -171q57 88 147 189q209 213 347.5 135.5t99.5 -367.5q-31 -210 -159.5 -396.5t-367.5 -195.5q-130 25 -182 80q-92 -484 -124 -513t-17 229t67 634q2 11 4 23 q15 90 27 176q25 314 169 602q85 117 127 113zM346 100q209 16 298 167.5t67 296t-147.5 138t-347.5 -306.5l-47 -253q69 -42 177 -42z" glyph-name="thorn" horiz-adv-x="944" unicode="þ"/>
</font>
</defs>
</svg>
